<?xml version="1.0" encoding="UTF-8" standalone="no"?>
<svg width="86px" height="105px" viewBox="0 0 86 105" version="1.1" xmlns="http://www.w3.org/2000/svg" xmlns:xlink="http://www.w3.org/1999/xlink">
    <!-- Generator: Sketch 3.8.3 (29802) - http://www.bohemiancoding.com/sketch -->
    <title>Slice 3</title>
    <desc>Created with Sketch.</desc>
    <defs></defs>
    <g id="icons" stroke="none" stroke-width="1" fill="none" fill-rule="evenodd">
        <g id="identity" transform="translate(1.000000, 1.000000)">
            <g id="Page-2">
                <rect id="Rectangle-291-Copy-2" fill="#EF5E41" x="0" y="0" width="84" height="84" rx="2"></rect>
                <g id="E" transform="translate(5.000000, 47.000000)">
                    <g id="path-1-link" fill="#FAFAFA">
                        <polygon id="path-1" points="16 18 6 18 6 27 19 27 19 32 0 32 0 0 19 0 19 5 6 5 6 13 16 13"></polygon>
                    </g>
                    <g id="path-1-link" fill="#000000">
                        <polygon id="path-1" points="16 18 6 18 6 27 19 27 19 32 0 32 0 0 19 0 19 5 6 5 6 13 16 13"></polygon>
                    </g>
                    <g id="path-1-link" fill="#FFFFFF">
                        <polygon id="path-1" points="16 18 6 18 6 27 19 27 19 32 0 32 0 0 19 0 19 5 6 5 6 13 16 13"></polygon>
                    </g>
                </g>
                <path d="M5.4357909,97.0961914 L3.68530262,97.0961914 L3.68530262,101 L1.48803699,101 L1.48803699,90.3359375 L5.45043933,90.3359375 C6.71021126,90.3359375 7.68188123,90.6166964 8.3654784,91.1782227 C9.04907556,91.7397489 9.39086902,92.533198 9.39086902,93.5585938 C9.39086902,94.2861365 9.23339989,94.8928198 8.91845691,95.3786621 C8.60351393,95.8645044 8.12622378,96.2514634 7.48657215,96.5395508 L9.79370105,100.897461 L9.79370105,101 L7.43530262,101 L5.4357909,97.0961914 L5.4357909,97.0961914 Z M3.68530262,95.3164062 L5.45776355,95.3164062 C6.00952412,95.3164062 6.43676595,95.1760268 6.73950183,94.8952637 C7.04223772,94.6145005 7.1936034,94.2275415 7.1936034,93.734375 C7.1936034,93.2314428 7.05078256,92.8359389 6.7651366,92.5478516 C6.47949064,92.2597642 6.0412626,92.1157227 5.45043933,92.1157227 L3.68530262,92.1157227 L3.68530262,95.3164062 L3.68530262,95.3164062 Z M20.155378,96.378418 L15.936628,96.378418 L15.936628,99.2348633 L20.8877999,99.2348633 L20.8877999,101 L13.7393624,101 L13.7393624,90.3359375 L20.8731514,90.3359375 L20.8731514,92.1157227 L15.936628,92.1157227 L15.936628,94.6572266 L20.155378,94.6572266 L20.155378,96.378418 L20.155378,96.378418 Z M33.600551,95.909668 C33.600551,96.9057667 33.4394198,97.7712366 33.1171526,98.5061035 C32.7948853,99.2409705 32.3481125,99.8305642 31.7768205,100.274902 L33.5492815,101.666504 L32.1503557,102.904297 L29.8798479,101.080566 C29.6210575,101.124512 29.3525055,101.146484 29.0741838,101.146484 C28.1903903,101.146484 27.401824,100.934084 26.7084612,100.509277 C26.0150983,100.084471 25.4779943,99.4777871 25.097133,98.689209 C24.7162718,97.9006308 24.5234026,96.9936575 24.5185198,95.9682617 L24.5185198,95.440918 C24.5185198,94.391108 24.7077269,93.467045 25.0861467,92.6687012 C25.4645666,91.8703573 25.9992292,91.2575705 26.6901506,90.8303223 C27.381072,90.403074 28.1708591,90.1894531 29.0595354,90.1894531 C29.9482117,90.1894531 30.7379987,90.403074 31.4289201,90.8303223 C32.1198416,91.2575705 32.6545042,91.8703573 33.0329241,92.6687012 C33.4113439,93.467045 33.600551,94.3886667 33.600551,95.4335938 L33.600551,95.909668 L33.600551,95.909668 Z M31.3739885,95.4262695 C31.3739885,94.3080999 31.1737952,93.458499 30.7734026,92.8774414 C30.3730099,92.2963838 29.8017266,92.0058594 29.0595354,92.0058594 C28.322227,92.0058594 27.753385,92.2927217 27.3529924,92.8664551 C26.9525998,93.4401884 26.7499651,94.2812445 26.7450823,95.3896484 L26.7450823,95.909668 C26.7450823,96.9985406 26.9452756,97.8432587 27.3456682,98.4438477 C27.7460608,99.0444366 28.3222269,99.3447266 29.0741838,99.3447266 C29.8114922,99.3447266 30.3778928,99.0554228 30.7734026,98.4768066 C31.1689124,97.8981905 31.3691057,97.054693 31.3739885,95.9462891 L31.3739885,95.4262695 L31.3739885,95.4262695 Z M45.9617397,90.3359375 L45.9617397,97.3598633 C45.9617397,98.5268613 45.5967531,99.4497036 44.866769,100.128418 C44.1367848,100.807132 43.1394804,101.146484 41.8748256,101.146484 C40.6297022,101.146484 39.6409425,100.816898 38.908517,100.157715 C38.1760915,99.4985319 37.80256,98.5927792 37.7879115,97.4404297 L37.7879115,90.3359375 L39.9851772,90.3359375 L39.9851772,97.3745117 C39.9851772,98.0727574 40.1524118,98.5817855 40.4868861,98.9016113 C40.8213605,99.2214371 41.2840023,99.3813477 41.8748256,99.3813477 C43.1101833,99.3813477 43.7376185,98.7319401 43.7571498,97.4331055 L43.7571498,90.3359375 L45.9617397,90.3359375 L45.9617397,90.3359375 Z M56.8580846,96.378418 L52.6393346,96.378418 L52.6393346,99.2348633 L57.5905064,99.2348633 L57.5905064,101 L50.4420689,101 L50.4420689,90.3359375 L57.575858,90.3359375 L57.575858,92.1157227 L52.6393346,92.1157227 L52.6393346,94.6572266 L56.8580846,94.6572266 L56.8580846,96.378418 L56.8580846,96.378418 Z M67.0879256,98.2021484 C67.0879256,97.7871073 66.9414426,97.468507 66.6484724,97.2463379 C66.3555022,97.0241688 65.8281637,96.7897962 65.0664412,96.5432129 C64.3047186,96.2966296 63.7016973,96.0537121 63.2573591,95.8144531 C62.0464156,95.160153 61.4409529,94.2788141 61.4409529,93.1704102 C61.4409529,92.5942354 61.6033048,92.0803245 61.9280134,91.6286621 C62.2527221,91.1769997 62.719026,90.82422 63.3269392,90.5703125 C63.9348524,90.316405 64.6172186,90.1894531 65.3740584,90.1894531 C66.1357809,90.1894531 66.8144851,90.3273912 67.4101912,90.6032715 C68.0058973,90.8791518 68.4685391,91.2685522 68.7981306,91.7714844 C69.1277221,92.2744166 69.2925154,92.8456999 69.2925154,93.4853516 L67.0952498,93.4853516 C67.0952498,92.9970679 66.9414427,92.617433 66.633824,92.3464355 C66.3262053,92.0754381 65.8940807,91.9399414 65.3374373,91.9399414 C64.8003252,91.9399414 64.3828489,92.0534657 64.0849959,92.2805176 C63.7871428,92.5075695 63.6382185,92.8066388 63.6382185,93.1777344 C63.6382185,93.5244158 63.8127773,93.8149402 64.1619002,94.0493164 C64.511023,94.2836926 65.0249339,94.5034169 65.7036482,94.7084961 C66.9536545,95.0844745 67.8642899,95.5507785 68.4355818,96.1074219 C69.0068737,96.6640653 69.2925154,97.3574177 69.2925154,98.1875 C69.2925154,99.1103562 68.9433978,99.8342259 68.2451521,100.359131 C67.5469064,100.884036 66.6069744,101.146484 65.4253279,101.146484 C64.6050113,101.146484 63.8579485,100.996339 63.184117,100.696045 C62.5102855,100.39575 61.9963746,99.9843776 61.6423689,99.4619141 C61.2883632,98.9394505 61.1113631,98.3339878 61.1113631,97.6455078 L63.3159529,97.6455078 C63.3159529,98.8222715 64.0190709,99.4106445 65.4253279,99.4106445 C65.9477914,99.4106445 66.3555022,99.3044444 66.6484724,99.092041 C66.9414426,98.8796376 67.0879256,98.5830097 67.0879256,98.2021484 L67.0879256,98.2021484 L67.0879256,98.2021484 Z M81.485247,92.1157227 L78.2186455,92.1157227 L78.2186455,101 L76.0213798,101 L76.0213798,92.1157227 L72.7987236,92.1157227 L72.7987236,90.3359375 L81.485247,90.3359375 L81.485247,92.1157227 L81.485247,92.1157227 Z" id="Connect" fill="#FAFAFA"></path>
                <path d="M31.1582031,66.9238281 L34.5371094,66.9238281 C35.227217,66.9238281 35.7545555,67.070311 36.1191406,67.3632812 C36.5813825,67.6953142 36.8190104,68.2324182 36.8320312,68.9746094 C36.8320312,69.5931021 36.6334655,70.1139302 36.2363281,70.5371094 C35.8326803,70.9928408 35.2272176,71.2272135 34.4199219,71.2402344 L31.1582031,71.2402344 L31.1582031,66.9238281 L31.1582031,66.9238281 Z M29,79.2382812 L31.1582031,79.2382812 L31.1582031,73.1542969 L33.9121094,73.1542969 L36.8515625,79.2382812 L39.4199219,79.2382812 L36.1191406,72.9199219 C37.9290455,72.2233038 38.8470051,70.9082128 38.8730469,68.9746094 C38.8339842,67.6594986 38.3619837,66.647139 37.4570312,65.9375 C36.7083296,65.3124969 35.7415424,65 34.5566406,65 L29,65 L29,79.2382812 L29,79.2382812 Z" id="R" fill="#FAFAFA"></path>
            </g>
        </g>
    </g>
</svg>