<?xml version="1.0" encoding="UTF-8"?>
<svg width="32px" height="32px" viewBox="0 0 32 32" version="1.1" xmlns="http://www.w3.org/2000/svg" xmlns:xlink="http://www.w3.org/1999/xlink">
    <!-- Generator: Sketch 44.1 (41455) - http://www.bohemiancoding.com/sketch -->
    <title>logos/ ELN</title>
    <desc>Created with Sketch.</desc>
    <defs>
        <polygon id="path-1" points="14.2991277 0.0263030303 0.00727272727 0.0263030303 0.00727272727 31.9927273 28.5909827 31.9927273 28.5909827 0.0263030303 14.2991277 0.0263030303"></polygon>
    </defs>
    <g stroke="none" stroke-width="1" fill="none" fill-rule="evenodd">
        <g>
            <g transform="translate(3.000000, 0.000000)">
                <mask id="mask-2" fill="white">
                    <use xlink:href="#path-1"></use>
                </mask>
                <g></g>
                <path d="M27.8232727,6.48012121 C26.9014545,5.55830303 26.4626667,5.72412121 26.4626667,5.72412121 L14.9541818,17.2327273 L13.7106667,20.5926061 L17.0707879,19.3493333 L28.5793939,7.84060606 C28.5793939,7.84060606 28.7450909,7.40181818 27.8232727,6.48012121" fill="#548DFF" mask="url(#mask-2)"></path>
                <path d="M11.8295758,30.0352727 C12.105701,30.0352727 12.3295758,30.2591475 12.3295758,30.5352727 C12.3295758,30.8115273 12.105701,31.0352727 11.8295758,31.0352727 C11.5533212,31.0352727 11.3295758,30.8115273 11.3295758,30.5352727 C11.3295758,30.2591475 11.5533212,30.0352727 11.8295758,30.0352727 Z M23.5963636,7.25769697 L23.5963636,3.12412121 C23.5963636,1.41612121 22.2065455,0.0263030303 20.4985455,0.0263030303 L3.09806061,0.0263030303 C1.38981818,0.0263030303 0,1.41612121 0,3.12412121 L0,28.9021818 C0,30.6104242 1.38981818,32 3.09806061,32 L20.4985455,32 C22.2065455,32 23.5963636,30.6104242 23.5963636,28.9021818 L23.5963636,14.1566061 L20.6038788,17.1489697 L20.6038788,28.9021818 C20.6038788,28.9606061 20.5567273,29.008 20.4985455,29.008 L3.09806061,29.008 C3.03987879,29.008 2.99236364,28.9606061 2.99236364,28.9021818 L2.99236364,3.12412121 C2.99236364,3.06593939 3.03987879,3.01866667 3.09806061,3.01866667 L20.4985455,3.01866667 C20.5567273,3.01866667 20.6038788,3.06593939 20.6038788,3.12412121 L20.6038788,10.2500606 L23.5963636,7.25769697 L23.5963636,7.25769697 Z" fill="#548DFF" mask="url(#mask-2)"></path>
            </g>
        </g>
    </g>
</svg>