<?xml version="1.0" encoding="UTF-8" standalone="no"?>
<svg width="48px" height="29px" viewBox="0 0 48 29" version="1.1" xmlns="http://www.w3.org/2000/svg" xmlns:xlink="http://www.w3.org/1999/xlink">
    <!-- Generator: Sketch 39.1 (31720) - http://www.bohemiancoding.com/sketch -->
    <title>Slice 4</title>
    <desc>Created with Sketch.</desc>
    <defs></defs>
    <g id="idbs-brand" stroke="none" stroke-width="1" fill="none" fill-rule="evenodd">
        <g id="idbslogo">
            <path d="M26.9804851,24.4621338 C25.8923059,24.4621338 24.8250931,24.4158234 23.7832243,24.3287322 L23.7832243,26.9748762 L23.7832243,28.8512538 L24.7681843,28.8512538 L24.7681843,26.9617434 C37.4171443,26.6910234 47.5139635,21.2473626 47.5139635,14.5680666 C47.5139635,14.5270554 47.5095859,14.4874266 47.5079731,14.4471066 L47.2296499,14.4471066 C46.5407539,20.0389146 37.7408563,24.4621338 26.9804851,24.4621338" id="Fill-1" fill="#FFC425"></path>
            <path d="M21.1283251,17.5579443 C21.1283251,18.1111347 21.1552819,18.7721523 21.1822387,19.1500083 L19.2125491,19.1500083 C19.1855923,18.8394291 19.1586355,18.5293107 19.1586355,18.2189619 L19.1316787,18.2189619 C18.5513011,19.0960947 17.4451507,19.4062131 16.3659571,19.4062131 C13.8564403,19.4062131 12.6288691,17.7332787 12.6288691,15.8175027 C12.6288691,12.7817523 14.9628211,12.1207347 16.2848563,12.1207347 C17.2967731,12.1207347 18.3761971,12.3905331 19.0505779,13.3082163 L19.0775347,13.3082163 L19.0775347,9.40915712 L21.1283251,9.40915712 L21.1283251,17.5579443 Z M16.9189171,13.4162739 C15.6238387,13.4162739 14.7605299,14.4816435 14.7605299,15.7635891 C14.7605299,17.0453043 15.6238387,18.1111347 16.9189171,18.1111347 C18.2142259,18.1111347 19.0775347,17.0453043 19.0775347,15.7635891 C19.0775347,14.4816435 18.2142259,13.4162739 16.9189171,13.4162739 L16.9189171,13.4162739 Z" id="Fill-4" fill="#FFFFFF"></path>
            <path d="M22.6933632,9.40913408 L24.7439232,9.40913408 L24.7439232,13.3081933 L24.7711104,13.3081933 C25.4457216,12.3905101 26.5251456,12.1207117 27.536832,12.1207117 C28.8588672,12.1207117 31.1928192,12.7817293 31.1928192,15.8174797 C31.1928192,17.7332557 29.965248,19.4061901 27.4555008,19.4061901 C26.3765376,19.4061901 25.2703872,19.0960717 24.69024,18.2189389 L24.6630528,18.2189389 C24.6630528,18.5295181 24.6363264,18.8396365 24.6091392,19.1499853 L22.6394496,19.1499853 C22.666176,18.7721293 22.6933632,18.1111117 22.6933632,17.5579213 L22.6933632,9.40913408 Z M26.9027712,18.1111117 C28.1978496,18.1111117 29.0611584,17.0452813 29.0611584,15.7635661 C29.0611584,14.4818509 28.1978496,13.4162509 26.9027712,13.4162509 C25.6074624,13.4162509 24.7439232,14.4818509 24.7439232,15.7635661 C24.7439232,17.0452813 25.6074624,18.1111117 26.9027712,18.1111117 L26.9027712,18.1111117 Z" id="Fill-6" fill="#FFFFFF"></path>
            <path d="M34.2283622,17.0722611 C34.3767398,17.9355699 34.8488294,18.1920051 35.8745702,18.1920051 C37.061591,18.1920051 37.5608678,17.8549299 37.5608678,17.3556531 C37.5608678,17.0183475 37.3182566,16.7888691 36.5759078,16.6944051 L34.9838438,16.4785203 C32.6498918,16.1684019 32.3128166,15.1428915 32.3128166,14.3470899 C32.3128166,13.3485363 33.1222118,12.1207347 36.0091238,12.1207347 C37.6281446,12.1207347 39.4902374,12.6066483 39.4902374,14.3874099 L37.3583462,14.3874099 C37.2910694,13.6052019 36.7514726,13.3349427 35.698775,13.3349427 C34.9301606,13.3349427 34.4444774,13.6183347 34.4444774,14.0636979 C34.4444774,14.4279603 34.5926246,14.6438451 35.6183654,14.8058163 L37.6014182,15.1161651 C39.0985574,15.3451827 39.6922982,16.1278515 39.6922982,17.1259443 C39.6922982,18.3406131 38.8020326,19.4062131 36.076631,19.4062131 C33.3650534,19.4062131 32.2183526,18.9338931 32.0427878,17.0722611 L34.2283622,17.0722611 Z" id="Fill-8" fill="#FFFFFF"></path>
            <path d="M8.918784,9.409088 L11.1852288,9.409088 L11.1852288,11.055296 L8.918784,11.055296 L8.918784,9.409088 Z M11.0774016,19.1499392 L9.0266112,19.1499392 L9.0266112,12.3773312 L11.0774016,12.3773312 L11.0774016,19.1499392 Z" id="Fill-3" fill="#FFFFFF"></path>
            <path d="M20.5576013,4.64598272 C21.6453197,4.64598272 22.7129933,4.69160192 23.7546317,4.77938432 L23.7546317,2.13277952 L23.7546317,0.25617152 L22.7701325,0.25617152 L22.7701325,2.14637312 C10.1207117,2.41640192 0.02412288,7.86029312 0.02412288,14.5402803 C0.02412288,14.5812915 0.02873088,14.6202291 0.02965248,14.6605491 L0.30843648,14.6605491 C0.99733248,9.06828032 9.79723008,4.64598272 20.5576013,4.64598272" id="Fill-10" fill="#FFC425"></path>
        </g>
    </g>
</svg>