<?xml version="1.0" encoding="UTF-8" standalone="no"?>
<svg width="20px" height="20px" viewBox="0 0 20 20" version="1.1" xmlns="http://www.w3.org/2000/svg" xmlns:xlink="http://www.w3.org/1999/xlink">
    <!-- Generator: Sketch 3.7.2 (28276) - http://www.bohemiancoding.com/sketch -->
    <title>Slice 8</title>
    <desc>Created with Sketch.</desc>
    <defs></defs>
    <g id="icons" stroke="none" stroke-width="1" fill="none" fill-rule="evenodd">
        <g id="logo-2">
            <rect id="bg" fill="#7F7F7F" x="0" y="0" width="20" height="20" rx="1"></rect>
            <g id="Group" transform="translate(4.000000, 3.000000)">
                <polygon id="Polygon" fill="#FFFFFF" points="6 14 0 10.5 0 3.5 6 0 12 3.5 12 10.5"></polygon>
                <path d="M2,7 C2,4.7909 3.7909,3 6,3 C8.2091,3 10,4.7909 10,7 C10,9.2091 8.2091,11 6,11 C3.7909,11 2,9.2091 2,7 L2,7 Z" id="Ellipse2" fill="#7F7F7F"></path>
                <path d="M3,7 C3,5.3431 4.3431,4 6,4 C7.6569,4 9,5.3431 9,7 C9,8.6569 7.6569,10 6,10 C4.3431,10 3,8.6569 3,7 L3,7 Z" id="Ellipse3" fill="#FFFFFF"></path>
            </g>
        </g>
    </g>
</svg>