<?xml version="1.0" encoding="UTF-8"?>
<svg width="25px" height="23px" viewBox="0 0 25 23" version="1.1" xmlns="http://www.w3.org/2000/svg" xmlns:xlink="http://www.w3.org/1999/xlink">
    <!-- Generator: Sketch 46.1 (44463) - http://www.bohemiancoding.com/sketch -->
    <title>ShapeTriRadio</title>
    <desc>Created with Sketch.</desc>
    <defs></defs>
    <g id="Page-1" stroke="none" stroke-width="1" fill="none" fill-rule="evenodd" opacity="0.5">
        <g id="Artboard" transform="translate(0.000000, -1.000000)" fill="#FFC245">
            <path d="M24.2708131,18.3290353 L15.7224353,3.28778678 C14.8844211,1.81255875 13.7395567,1 12.4997903,1 C11.2600239,1 10.1154472,1.81255875 9.27743296,3.28778678 L0.729630352,18.3290353 C-0.108671455,19.803679 -0.22888077,21.2166722 0.391146226,22.3076806 C1.01117322,23.398689 2.27595928,24 3.95256289,24 L21.0470178,24 C22.7236214,24 23.9884074,23.398689 24.608722,22.3073884 C25.228749,21.2166722 25.1088273,19.8033868 24.2708131,18.3290353 L24.2708131,18.3290353 Z M8.70485701,21.6146244 C6.43410879,20.279936 4.90388446,17.7934653 4.90388446,14.9362154 L9.82326377,14.9362154 C9.82326377,15.9430753 10.3633429,16.8190376 11.162246,17.2897431 L8.70485701,21.6146244 L8.70485701,21.6146244 Z M8.70485701,8.25839071 C9.82211345,7.6012729 11.1159453,7.22055947 12.4995027,7.22055947 C13.8836354,7.22055947 15.1777548,7.6012729 16.2944361,8.25839071 L13.8364719,12.5859016 C13.4419093,12.3533245 12.9869544,12.2192129 12.4995027,12.2192129 C12.0123387,12.2192129 11.5570962,12.3542011 11.1625336,12.5859016 L8.70485701,8.25839071 L8.70485701,8.25839071 Z M12.4995027,16.0733886 C11.8817764,16.0733886 11.381096,15.5635306 11.381096,14.9359232 C11.381096,14.3083158 11.8814888,13.7990422 12.4995027,13.7990422 C13.1178043,13.7990422 13.6179095,14.3080236 13.6179095,14.9359232 C13.6179095,15.5635306 13.1178043,16.0733886 12.4995027,16.0733886 L12.4995027,16.0733886 Z M16.2944361,21.6146244 L13.8364719,17.289451 C14.6356625,16.8196219 15.1763169,15.9430753 15.1763169,14.9359232 L20.0959838,14.9359232 C20.0962714,17.7934653 18.5654719,20.2805203 16.2944361,21.6146244 L16.2944361,21.6146244 Z" id="Shape"></path>
        </g>
    </g>
</svg>