<?xml version="1.0" encoding="UTF-8" standalone="no"?>
<svg width="46px" height="46px" viewBox="0 0 46 46" version="1.1" xmlns="http://www.w3.org/2000/svg" xmlns:xlink="http://www.w3.org/1999/xlink" xmlns:sketch="http://www.bohemiancoding.com/sketch/ns">
    <!-- Generator: Sketch 3.3.3 (12072) - http://www.bohemiancoding.com/sketch -->
    <title>Slice 1 Copy 2</title>
    <desc>Created with Sketch.</desc>
    <defs></defs>
    <g id="UX-icons" stroke="none" stroke-width="1" fill="none" fill-rule="evenodd" sketch:type="MSPage">
        <g id="help-copy" sketch:type="MSLayerGroup" transform="translate(1.000000, 0.000000)">
            <g id="icon-new-3-copy-2" transform="translate(0.000000, 0.459961)" stroke-width="2" stroke="#FFFFFF" sketch:type="MSShapeGroup">
                <g id="flow-for-menu">
                    <g id="Artboard-3">
                        <g id="icon-add_new">
                            <circle id="Oval-" cx="22" cy="22.5400391" r="22"></circle>
                        </g>
                    </g>
                </g>
            </g>
            <path d="M20.1015625,26.984375 C20.1015625,25.9453073 20.2304675,25.1171906 20.4882812,24.5 C20.746095,23.8828094 21.2558556,23.2050818 22.0175781,22.4667969 C22.7793007,21.7285119 23.2617177,21.2031266 23.4648438,20.890625 C23.7773453,20.4140601 23.9335938,19.8984403 23.9335938,19.34375 C23.9335938,18.6093713 23.7519549,18.0488301 23.3886719,17.6621094 C23.0253888,17.2753887 22.492191,17.0820312 21.7890625,17.0820312 C21.1171841,17.0820312 20.5761739,17.2714825 20.1660156,17.6503906 C19.7558573,18.0292988 19.5507812,18.5429655 19.5507812,19.1914062 L16.703125,19.1914062 C16.7187501,17.8085868 17.1894485,16.7148478 18.1152344,15.9101562 C19.0410203,15.1054647 20.2656174,14.703125 21.7890625,14.703125 C23.3593829,14.703125 24.58398,15.1015585 25.4628906,15.8984375 C26.3418013,16.6953165 26.78125,17.8085866 26.78125,19.2382812 C26.78125,20.5117251 26.1875059,21.7656188 25,23 L23.5585938,24.4179688 C23.0429662,25.0039092 22.7773438,25.8593694 22.7617188,26.984375 L20.1015625,26.984375 Z M19.9023438,30.6289062 C19.9023438,30.1679664 20.0468736,29.7949233 20.3359375,29.5097656 C20.6250014,29.2246079 21.0156225,29.0820312 21.5078125,29.0820312 C22.007815,29.0820312 22.4023423,29.2285142 22.6914062,29.5214844 C22.9804702,29.8144546 23.125,30.1835915 23.125,30.6289062 C23.125,31.0585959 22.9843764,31.4179673 22.703125,31.7070312 C22.4218736,31.9960952 22.0234401,32.140625 21.5078125,32.140625 C20.9921849,32.140625 20.5957045,31.9960952 20.3183594,31.7070312 C20.0410142,31.4179673 19.9023438,31.0585959 19.9023438,30.6289062 L19.9023438,30.6289062 Z" id="?" fill="#FFFFFF" sketch:type="MSShapeGroup"></path>
        </g>
    </g>
</svg>