<svg xmlns="http://www.w3.org/2000/svg" width="16" height="16" viewBox="0 0 16 16">
  <g fill="none" fill-rule="evenodd">
    <path fill="#548DFF" d="M5,14.3263688 C2.63505267,13.2029049 1,10.792396 1,8 C1,5.20760404 2.63505267,2.7970951 5,1.67363116 L5,3.99963381 C3.7855533,4.91184014 3,6.36418217 3,8 C3,9.63581783 3.7855533,11.0881599 5,12.0003662 L5,10 L9,13.0007498 L5,16 L5,14.3263688 Z M11,1.67363116 C13.3649473,2.7970951 15,5.20760404 15,8 C15,10.792396 13.3649473,13.2029049 11,14.3263688 L11,12.0003662 C12.2144467,11.0881599 13,9.63581783 13,8 C13,6.36418217 12.2144467,4.91184014 11,3.99963381 L11,6 L7,3.00074981 L11,0 L11,1.67363116 Z"/>
  </g>
</svg>
