<svg xmlns="http://www.w3.org/2000/svg" width="16" height="16" viewBox="0 0 16 16">
  <g fill="none" fill-rule="evenodd">
    <path fill="#FFFFFF" d="M4,8 L2,8 L2,0 L4,0 L4,8 L4,8 Z M4,12 L2,12 L2,16 L4,16 L4,12 L4,12 Z M5,11 L5,9 L1,9 L1,11 L5,11 L5,11 Z M10,5 L10,3 L6,3 L6,5 L10,5 L10,5 Z M15,13 L15,11 L11,11 L11,13 L15,13 L15,13 Z M9,0 L7,0 L7,2 L9,2 L9,0 L9,0 Z M9,6 L7,6 L7,16 L9,16 L9,6 L9,6 Z M14,0 L12,0 L12,10 L14,10 L14,0 L14,0 Z M14,14 L12,14 L12,16 L14,16 L14,14 L14,14 Z"/>
  </g>
</svg>
