<svg xmlns="http://www.w3.org/2000/svg" width="15" height="16" viewBox="0 0 15 16">
  <path fill="#434A54" fill-rule="evenodd" d="M437.905989,19 L444.834192,23 L444.834192,31 L437.905989,35 L430.977786,31 L430.977786,23 L437.905989,19 Z M437.905989,32 C440.667413,32 442.905989,29.7614237 442.905989,27 C442.905989,24.2385763 440.667413,22 437.905989,22 C435.144565,22 432.905989,24.2385763 432.905989,27 C432.905989,29.7614237 435.144565,32 437.905989,32 Z M437.834192,30 C436.177338,30 434.834192,28.6568542 434.834192,27 C434.834192,25.3431458 436.177338,24 437.834192,24 C439.491047,24 440.834192,25.3431458 440.834192,27 C440.834192,28.6568542 439.491047,30 437.834192,30 Z" transform="translate(-430 -19)"/>
</svg>
