<?xml version="1.0" encoding="UTF-8"?>
<svg width="246px" height="232px" viewBox="0 0 246 232" version="1.1" xmlns="http://www.w3.org/2000/svg" xmlns:xlink="http://www.w3.org/1999/xlink">
    <!-- Generator: Sketch 46.1 (44463) - http://www.bohemiancoding.com/sketch -->
    <title>3</title>
    <desc>Created with Sketch.</desc>
    <defs>
        <polygon id="path-1" points="0.0209945488 70.250323 0.0209945488 0.0783161809 22.7131275 0.0783161809 45.4052605 0.0783161809 45.4052605 70.250323"></polygon>
        <polygon id="path-3" points="0.0209945488 70.250323 0.0209945488 0.0783161809 22.7131275 0.0783161809 45.4052605 0.0783161809 45.4052605 70.250323"></polygon>
        <polygon id="path-5" points="107.06678 84.2588418 0.303852181 84.2588418 0.303852181 62.1205208 0.303852181 0.322119945 38.1276512 0.322119945 107.06678 0.322119945"></polygon>
        <polygon id="path-7" points="107.06678 84.2588418 0.303852181 84.2588418 0.303852181 62.1205208 0.303852181 0.322119945 38.1276512 0.322119945 107.06678 0.322119945"></polygon>
        <polygon id="path-9" points="107.06678 84.2588418 0.303852181 84.2588418 0.303852181 62.1205208 0.303852181 0.322119945 38.1276512 0.322119945 107.06678 0.322119945"></polygon>
        <polygon id="path-11" points="107.06678 84.2588418 0.303852181 84.2588418 0.303852181 62.1205208 0.303852181 0.322119945 38.1276512 0.322119945 107.06678 0.322119945"></polygon>
    </defs>
    <g id="Page-1" stroke="none" stroke-width="1" fill="none" fill-rule="evenodd">
        <g id="3" transform="translate(-20.000000, 0.000000)">
            <rect id="CROP-" x="0" y="0" width="266" height="266"></rect>
            <g id="Polygon-Symbols" transform="translate(61.000000, 0.000000)">
                <path d="M27,5.40800044e-16 L178,2.9355858e-15 L178,1.0658141e-14 C192.911688,7.91901267e-15 205,12.0883118 205,27 L205,178 L205,178 C205,192.911688 192.911688,205 178,205 L27,205 L27,205 C12.0883118,205 1.95897235e-14,192.911688 1.77635684e-14,178 L9.36750677e-16,27 L0,27 C-1.82615513e-15,12.0883118 12.0883118,2.73912837e-15 27,5.40800044e-16 Z" id="Rectangle-3" fill="#BAD1FF" fill-rule="nonzero"></path>
                <g id="IDBS-Chem-Icon" transform="translate(83.000000, 26.000000)">
                    <g id="Group-4">
                        <g id="Fill-1-Clipped">
                            <mask id="mask-2" fill="white">
                                <use xlink:href="#path-1"></use>
                            </mask>
                            <g id="path-1"></g>
                            <path d="M39.0162694,13.0196221 C35.4874357,13.0196221 32.6269284,10.1222778 32.6269284,6.54879196 C32.6269284,2.97530613 35.4874357,0.0783161809 39.0162694,0.0783161809 C42.5447532,0.0783161809 45.4052605,2.97530613 45.4052605,6.54879196 C45.4052605,10.1222778 42.5447532,13.0196221 39.0162694,13.0196221 Z" id="Fill-1" fill="#FFFFFF" fill-rule="nonzero" mask="url(#mask-2)"></path>
                        </g>
                        <g id="Fill-3-Clipped">
                            <mask id="mask-4" fill="white">
                                <use xlink:href="#path-3"></use>
                            </mask>
                            <g id="path-1"></g>
                            <path d="M6.38934101,70.250323 C2.86050727,70.250323 0,67.3533331 0,63.7794929 C0,60.206007 2.86050727,57.3090171 6.38934101,57.3090171 C9.91782483,57.3090171 12.7783321,60.206007 12.7783321,63.7794929 C12.7783321,67.3533331 9.91782483,70.250323 6.38934101,70.250323 Z" id="Fill-3" fill="#FFFFFF" fill-rule="nonzero" mask="url(#mask-4)"></path>
                        </g>
                    </g>
                    <path d="M78.1023622,63.2098234 C78.1023622,66.7722566 75.220083,69.66 71.6651781,69.66 C68.1102731,69.66 65.2283465,66.7722566 65.2283465,63.2098234 C65.2283465,59.6477434 68.1102731,56.76 71.6651781,56.76 C75.220083,56.76 78.1023622,59.6477434 78.1023622,63.2098234" id="Fill-5" fill="#FFFFFF" fill-rule="nonzero"></path>
                    <g id="Group-11" transform="translate(1.716535, 1.720000)">
                        <g id="Fill-6-Clipped">
                            <mask id="mask-6" fill="white">
                                <use xlink:href="#path-5"></use>
                            </mask>
                            <g id="path-3"></g>
                            <path d="M65.9994464,25.7054 L65.9994464,53.7184499 C67.230383,53.0498521 68.63989,52.6693578 70.1369179,52.6693578 C71.5898324,52.6693578 72.9576966,53.0318676 74.1621652,53.6644966 L74.1621652,23.3512022 C74.1621652,21.8941103 73.384713,20.5477461 72.1213091,19.8192002 L45.9063827,4.69534812 C45.8058045,7.6744169 44.2007874,10.2719336 41.8236117,11.7582942 L65.9994464,25.7054 Z" id="Fill-6" fill="#FFFFFF" fill-rule="nonzero" mask="url(#mask-6)"></path>
                        </g>
                        <g id="Fill-8-Clipped">
                            <mask id="mask-8" fill="white">
                                <use xlink:href="#path-7"></use>
                            </mask>
                            <g id="path-3"></g>
                            <path d="M61.4568386,61.5173473 L37.2330087,75.4930166 L13.0067085,61.5159367 C12.9502435,64.5024109 11.380517,67.1203804 9.03016214,68.6402415 L35.1925054,83.7334142 C35.8235016,84.0980398 36.5286081,84.2803526 37.2330087,84.2803526 C37.9374093,84.2803526 38.6425158,84.0980398 39.2738649,83.7334142 L65.4344436,68.6409468 C63.0840888,67.1214383 61.5136565,64.5034688 61.4568386,61.5173473" id="Fill-8" fill="#FFFFFF" fill-rule="nonzero" mask="url(#mask-8)"></path>
                        </g>
                        <g id="Fill-9-Clipped">
                            <mask id="mask-10" fill="white">
                                <use xlink:href="#path-9"></use>
                            </mask>
                            <g id="path-3"></g>
                            <path d="M4.3266292,52.6693578 C5.82436283,52.6693578 7.23492864,53.0502047 8.46657105,53.7198604 L8.46657105,25.7054 L32.6424057,11.7586469 C30.26523,10.2722862 28.6602129,7.6744169 28.5592818,4.69570075 L2.34435544,19.8192002 C1.0816573,20.5477461 0.303852181,21.8941103 0.303852181,23.3512022 L0.303852181,53.663086 C1.50796791,53.031515 2.87477336,52.6693578 4.3266292,52.6693578" id="Fill-9" fill="#FFFFFF" fill-rule="nonzero" mask="url(#mask-10)"></path>
                        </g>
                        <g id="Fill-10-Clipped">
                            <mask id="mask-12" fill="white">
                                <use xlink:href="#path-11"></use>
                            </mask>
                            <g id="path-3"></g>
                            <path d="M70.1411527,27.4301426 C68.730234,27.4301426 67.3584879,26.6984229 66.6029158,25.3901434 C65.4750278,23.4397138 66.1444908,20.9451669 68.0964146,19.8192002 L100.943859,0.868895063 C102.897547,-0.257071632 105.392241,0.411878828 106.51907,2.36195582 C107.646605,4.31238544 106.977495,6.80657975 105.025571,7.93289908 L72.177774,26.8828515 C71.535132,27.2538246 70.8332017,27.4301426 70.1411527,27.4301426 L70.1411527,43.0963595" id="Fill-10" fill="#FFFFFF" fill-rule="nonzero" mask="url(#mask-12)"></path>
                        </g>
                    </g>
                </g>
            </g>
            <g id="Round-bottomed-flask" transform="translate(24.000000, 29.000000)" fill-rule="nonzero">
                <path d="M100.8,14.1567731 L100.8,42.517051 C134.897898,51.6272559 160,82.5968302 160,119.4 C160,163.361866 124.18278,199 80,199 C35.81722,199 0,163.361866 0,119.4 C0,82.0235174 25.8902649,50.6637952 60.8,42.1072741 L60.8,14.2877416 C57.2026462,13.9063798 54.4,10.8624865 54.4,7.164 L54.4,7.164 L54.4,7.164 C54.4,3.20743205 57.6074321,7.26809741e-16 61.564,0 L99.236,0 L99.236,3.55271368e-15 C103.192568,2.82590394e-15 106.4,3.20743205 106.4,7.164 L106.4,7.164 C106.4,10.5833739 104.004405,13.4432267 100.8,14.1567731 Z" id="Combined-Shape" stroke="#97B9FE" stroke-width="7" fill="#F4F4F5"></path>
                <path d="M13.8527876,103.559907 C12.6412871,108.662802 12,113.986679 12,119.460423 C12,157.313786 42.6684946,188 80.5,188 C118.331505,188 149,157.313786 149,119.460423 C149,114.931351 148.560962,110.504881 147.723147,106.221297 C97.2595113,135.27512 68.1491687,63.3063672 13.8527876,103.559907 Z" id="Combined-Shape" fill="#BAD1FF" transform="translate(80.500000, 139.500000) scale(-1, 1) translate(-80.500000, -139.500000) "></path>
                <path d="M13.8527876,103.559907 C12.6412871,108.662802 12,113.986679 12,119.460423 C12,157.313786 42.6684946,188 80.5,188 C118.331505,188 149,157.313786 149,119.460423 C149,114.931351 148.560962,110.504881 147.723147,106.221297 C97.2595113,135.27512 68.1491687,63.3063672 13.8527876,103.559907 Z" id="Combined-Shape-Copy" fill="#97B9FE"></path>
                <circle id="Oval-2" fill="#FFFFFF" cx="49" cy="145" r="7"></circle>
                <circle id="Oval-2-Copy" fill="#FFFFFF" cx="49" cy="125" r="7"></circle>
                <circle id="Oval-2-Copy-2" fill="#FFFFFF" cx="49" cy="105" r="7"></circle>
                <circle id="Oval-2-Copy-3" fill="#97B9FE" cx="49" cy="79" r="7"></circle>
            </g>
        </g>
    </g>
</svg>