<?xml version="1.0" standalone="no"?>
<!DOCTYPE svg PUBLIC "-//W3C//DTD SVG 1.1//EN" "http://www.w3.org/Graphics/SVG/1.1/DTD/svg11.dtd" >
<svg xmlns="http://www.w3.org/2000/svg">
<metadata>Generated by IcoMoon</metadata>
<defs>
<font id="idbs" horiz-adv-x="1024">
<font-face units-per-em="1024" ascent="960" descent="-64" />
<missing-glyph horiz-adv-x="1024" />
<glyph unicode="&#x20;" horiz-adv-x="512" d="" />
<glyph unicode="&#xe900;" glyph-name="add_doc" horiz-adv-x="768" d="M351.952 320v96h64v-96h96v-64h-96v-96h-64v96h-96v64h96zM-0.048 960h446.921v-320h321.079v-704h-768v1024zM127.952 832v-768h512v448h-321.079v320h-190.921zM511.952 960v-256h256l-256 256z" />
<glyph unicode="&#xe901;" glyph-name="add_folder" d="M576 416v128h-128v-128h-128v-128h128v-128h128v128h128v128h-128zM448 864l128-128h448v-704h-1024v832h448z" />
<glyph unicode="&#xe902;" glyph-name="add_user" d="M575.851 274.381c-217.642 0-250.256 21.522-305.065 107.714-262.852 0-270.786-446.095-270.786-446.095h576v320l-0.149 18.381zM640 192.73h128l0.27 127.805h127.73v-127.805h128v-128h-128v-128l-127.73-0.73v128.73h-128.27v128zM512 448c141.385 0 256 114.615 256 256s-114.615 256-256 256c-141.385 0-256-114.615-256-256s114.615-256 256-256z" />
<glyph unicode="&#xe903;" glyph-name="align_center" d="M0 896h1024v-128h-1024v128zM192 704h640v-128h-640v128zM192 320h640v-128h-640v128zM0 512h1024v-128h-1024v128zM0 128h1024v-128h-1024v128z" />
<glyph unicode="&#xe904;" glyph-name="align_left" d="M0 896h1024v-128h-1024v128zM0 704h640v-128h-640v128zM0 320h640v-128h-640v128zM0 512h1024v-128h-1024v128zM0 128h1024v-128h-1024v128z" />
<glyph unicode="&#xe905;" glyph-name="align_right" d="M0 896h1024v-128h-1024v128zM384 704h640v-128h-640v128zM384 320h640v-128h-640v128zM0 512h1024v-128h-1024v128zM0 128h1024v-128h-1024v128z" />
<glyph unicode="&#xe906;" glyph-name="aliquot_alt" horiz-adv-x="832" d="M256 832h320c128 0 128-128 128-128v-192h-128v64c0 128 0 128-128 128h-256v-529.124c38.259-22.132 64-63.498 64-110.876 0-70.692-57.308-128-128-128s-128 57.308-128 128c0 47.378 25.741 88.744 64 110.876v546.248c-38.259 22.132-64 63.498-64 110.876 0 70.692 57.308 128 128 128s128-57.308 128-128zM128 768c35.346 0 64 28.654 64 64s-28.654 64-64 64c-35.346 0-64-28.654-64-64s28.654-64 64-64zM128 0c35.346 0 64 28.654 64 64s-28.654 64-64 64c-35.346 0-64-28.654-64-64s28.654-64 64-64zM448 256.195h128l0.27 127.805h127.73v-127.805h128v-128h-128v-128l-127.73-0.73v128.73h-128.27v128zM192 576h256v-128h-256v128z" />
<glyph unicode="&#xe907;" glyph-name="aliquot" d="M128 512h320v-128h-256v-192h-128v320h64zM960 448v64h-384v-128h256v-192h128v256zM192 960h640v-256h-640v256zM0 192h256v-256h-256v256zM768 192h256v-256h-256v256zM384 192h256v-256h-256v256zM448 704h128v-512h-128v512z" />
<glyph unicode="&#xe908;" glyph-name="arrow" d="M0 448l448-416v256h448c64 0 128 64 128 160s-64 160-128 160h-448v256l-448-416z" />
<glyph unicode="&#xe909;" glyph-name="attachment" horiz-adv-x="896" d="M633.872 632.952l-64.96 64.896-324.8-324.736c-53.824-53.824-53.824-141.056 0-194.816s141.056-53.824 194.88 0l389.76 389.696c89.728 89.664 89.728 235.072 0 324.736s-235.136 89.728-324.8 0l-409.216-409.152c-0.32-0.32-0.64-0.576-0.896-0.832-125.12-125.12-125.12-327.872 0-452.928s327.872-125.056 452.992 0c0.256 0.256 0.512 0.576 0.832 0.896l0.064-0.064 279.36 279.296-64.96 64.896-279.36-279.232c-0.32-0.256-0.576-0.576-0.832-0.832-89.088-89.088-233.984-89.088-323.072 0s-89.088 233.92 0 323.008c0.32 0.32 0.576 0.576 0.896 0.832l-0.064 0.064 409.28 409.152c53.696 53.76 141.12 53.76 194.88 0s53.696-141.12 0-194.816l-389.76-389.696c-17.92-17.92-47.040-17.92-64.96 0s-17.92 47.040 0 64.896l324.736 324.736z" />
<glyph unicode="&#xe90a;" glyph-name="back" d="M512-64c-282.77 0-512 229.23-512 512s229.23 512 512 512c282.77 0 512-229.23 512-512s-229.23-512-512-512zM512 64c212.077 0 384 171.923 384 384s-171.923 384-384 384c-212.077 0-384-171.923-384-384s171.923-384 384-384zM510.071 640l-254.071-212.24 254.114-209.969v128.321h188.796c30.045 0 69.090 27.944 69.090 82.205 0 54.303-42.26 83.962-72.304 83.962h-185.668v127.721h0.043z" />
<glyph unicode="&#xe90b;" glyph-name="barcode" d="M0 832h128v-640h-128v640zM192 832h64v-640h-64v640zM320 832h64v-640h-64v640zM448 832h128v-640h-128v640zM768 832h128v-640h-128v640zM960 832h64v-640h-64v640zM640 832h64v-640h-64v640zM0 128h64v-64h-64v64zM192 128h64v-64h-64v64zM320 128h64v-64h-64v64zM640 128h64v-64h-64v64zM960 128h64v-64h-64v64zM832 128h64v-64h-64v64zM448 128h128v-64h-128v64z" />
<glyph unicode="&#xe90c;" glyph-name="bold" d="M735.89 479.232c42.862 50.907 68.681 116.59 68.681 188.197 0 161.353-131.218 292.571-292.571 292.571h-365.714v-1024h438.857c161.353 0 292.571 131.218 292.571 292.571 0 106.203-56.905 199.387-141.824 250.661v0zM365.714 813.714h116.005c63.927 0 116.005-65.609 116.005-146.286s-52.005-146.286-116.005-146.286h-116.005v292.571zM547.401 82.286h-181.687v292.571h181.687c66.779 0 121.125-65.609 121.125-146.286s-54.345-146.286-121.125-146.286v0z" />
<glyph unicode="&#xe90d;" glyph-name="book_completed" d="M31.408 596.5c-18.432-58.147-78.667-238.853 41.804-299.088l485.914-240.941 417.616 481.882v48.278l-417.616-409.69-435.432 180.706c-50.482 60.235-23.749 151.427 0 180.706l435.432-120.471 417.616 301.176-417.616 120.471-527.717-243.029zM734.507 721.029l17.929-49.26-270.933-98.611-44.742 123.113 49.179 17.967 26.894-73.891 221.672 80.682z" />
<glyph unicode="&#xe90e;" glyph-name="book" d="M31.408 596.5c-18.432-58.147-78.667-238.853 41.804-299.088l485.914-240.941 417.616 481.882v48.278l-417.616-409.69-435.432 180.706c-50.482 60.235-23.749 151.427 0 180.706l435.432-120.471 417.616 301.176-417.616 120.471-527.717-243.029z" />
<glyph unicode="&#xe90f;" glyph-name="bug" d="M1023.872 383.936v64h-193.28c-5.888 72.704-31.808 139.008-71.68 192.256h161.92l70.080 280.256-62.080 15.552-57.92-231.744h-174.656c-0.896 0.704-1.792 1.344-2.688 2.048 6.72 19.52 10.368 40.448 10.368 62.208 0 105.792-85.952 191.488-192 191.488s-192-85.76-192-191.488c0-21.76 3.648-42.688 10.368-62.208-0.896-0.704-1.792-1.344-2.688-2.048h-174.656l-57.92 231.744-62.080-15.552 70.080-280.256h161.92c-39.872-53.248-65.792-119.552-71.68-192.256h-193.28v-64h193.344c3.776-45.632 15.488-88.832 33.664-127.744h-123.968l-70.080-280.256 62.080-15.552 57.92 231.744h112.384c58.688-78.016 147.392-127.744 246.656-127.744s187.968 49.728 246.656 127.744h112.384l57.92-231.744 62.080 15.552-70.080 280.256h-123.968c18.112 38.912 29.824 82.112 33.664 127.744h193.216z" />
<glyph unicode="&#xe910;" glyph-name="bullet_list" d="M0 960h256v-256h-256v256zM384 896h640v-128h-640v128zM0 576h256v-256h-256v256zM384 512h640v-128h-640v128zM0 192h256v-256h-256v256zM384 128h640v-128h-640v128z" />
<glyph unicode="&#xe911;" glyph-name="calendar" d="M256 832h-64v128h-128v-128h-64v-896h1024v896h-64v128h-128v-128h-64v128h-128v-128h-64v128h-128v-128h-64v128h-128v-128zM128 704h768v-640h-768v640zM384 192v384h-64l-64-64v-64l64 55v-311h64zM512 448.134v-128.267c0-70.378 57.308-127.866 128-127.866 71.185 0 128 57.248 128 127.866v128.267c0 70.378-57.308 127.866-128 127.866-71.185 0-128-57.248-128-127.866zM576 447.4c0 35.677 28.407 64.6 64 64.6 35.346 0 64-28.375 64-64.6v-126.801c0-35.677-28.407-64.6-64-64.6-35.346 0-64 28.375-64 64.6v126.801z" />
<glyph unicode="&#xe912;" glyph-name="caret_down" d="M0 704h1024l-512-512z" />
<glyph unicode="&#xe913;" glyph-name="caret_left" d="M768 960v-1024l-512 512z" />
<glyph unicode="&#xe914;" glyph-name="caret_right" d="M256 960v-1024l512 512z" />
<glyph unicode="&#xe915;" glyph-name="caret_up" d="M0 192h1024l-512 512z" />
<glyph unicode="&#xe916;" glyph-name="chevron_down" d="M1024 639.883l-512-511.766-512 511.766 128 128 384-384 384 384z" />
<glyph unicode="&#xe917;" glyph-name="chevron_left" horiz-adv-x="640" d="M511.766 959.883l-511.766-512 511.766-512 128 128-384 384 384 384z" />
<glyph unicode="&#xe918;" glyph-name="chevron_right" horiz-adv-x="640" d="M128 959.883l511.766-512-511.766-512-128 128 384 384-384 384z" />
<glyph unicode="&#xe919;" glyph-name="chevron_up" d="M0 256.117l512 511.766 512-511.766-128-128-384 384-384-384z" />
<glyph unicode="&#xe91a;" glyph-name="clock" d="M573.832 431.423l155.174-155.174c12.439-12.439 12.027-33.019-0.104-45.151-12.497-12.497-32.35-12.905-45.151-0.104l-155.174 155.174c-5.287-1.414-10.844-2.168-16.577-2.168-35.346 0-64 28.654-64 64 0 23.689 12.87 44.372 32 55.438v169.171c0 17.337 14.844 31.391 32 31.391 17.673 0 32-13.764 32-31.391v-169.171c19.13-11.066 32-31.749 32-55.438 0-5.733-0.754-11.29-2.168-16.577zM512-64c-282.77 0-512 229.23-512 512s229.23 512 512 512c282.77 0 512-229.23 512-512s-229.23-512-512-512zM512 64c212.077 0 384 171.923 384 384s-171.923 384-384 384c-212.077 0-384-171.923-384-384s171.923-384 384-384z" />
<glyph unicode="&#xe91b;" glyph-name="close" d="M843.007 944.51l165.503-165.503-329.492-332.522 329.492-329.492-165.503-165.503-329.492 329.492-331.007-331.007-166.006 166.006 329.633 328.233-330.645 334.793 165.503 165.503 332.019-332.019z" />
<glyph unicode="&#xe91c;" glyph-name="comments" d="M0 895.562v-767.124c0-35.641 28.854-64.438 64.447-64.438h707.006l252.547-128v959.944c0 35.599-28.679 64.056-64.056 64.056h-895.888c-35.599 0-64.056-28.85-64.056-64.438zM128 832h768v-128h-768v128zM128 576h576v-128h-576v128zM128 320h320v-128h-320v128z" />
<glyph unicode="&#xe91d;" glyph-name="datastore" d="M1024 640v256h-1024v-256h1024zM64 832h256v-128h-256v128zM832 768c0 35.346 28.407 64 64 64 35.346 0 64-28.407 64-64 0-35.346-28.407-64-64-64-35.346 0-64 28.407-64 64zM704 832h64v-128h-64v128zM1024 320v256h-1024v-256h1024zM64 512h256v-128h-256v128zM832 448c0 35.346 28.407 64 64 64 35.346 0 64-28.407 64-64 0-35.346-28.407-64-64-64-35.346 0-64 28.407-64 64zM704 512h64v-128h-64v128zM1024 0v256h-1024v-256h1024zM64 192h256v-128h-256v128zM832 128c0 35.346 28.407 64 64 64 35.346 0 64-28.407 64-64 0-35.346-28.407-64-64-64-35.346 0-64 28.407-64 64zM704 192h64v-128h-64v128z" />
<glyph unicode="&#xe91e;" glyph-name="delete" horiz-adv-x="768" d="M64 64c0-64 64-128 128-128h384c64 0 128 64 128 128v640h-640v-640zM576 896l-64 64h-256l-64-64h-192v-128h768v128h-192zM192 576h128v-512h-128v512zM448 576h128v-512h-128v512z" />
<glyph unicode="&#xe91f;" glyph-name="document" horiz-adv-x="768" d="M-0.048 960v-1024h768v704h-321.079v320h-446.921zM511.952 960v-256h256l-256 256z" />
<glyph unicode="&#xe920;" glyph-name="download" d="M768 544l-256-256-256 256h160v384h192v-384h160zM512 224h-512v-256h1024v256h-512z" />
<glyph unicode="&#xe921;" glyph-name="drag" horiz-adv-x="832" d="M832-64v1024h-192v-1024h192zM512-64v1024h-192v-1024h192zM192-64v1024h-192v-1024h192z" />
<glyph unicode="&#xe922;" glyph-name="earth" d="M512 960c282.814 0 512-229.248 512-512s-229.229-512-512-512c-282.771 0-512 229.248-512 512s229.229 512 512 512zM500.651 467.584c-7.936-3.499-44.928-26.667-57.685-42.667s-18.261-49.792 0-64c18.347-14.251-0.981-81.835 48.341-94.251s98.731-19.584 100.565-58.667c1.749-39.083-4.565-129.749-28.331-138.667 32-17.749 109.824 76.459 137.259 126.251 27.435 49.749 36.565 120.875 34.731 138.667-1.835 17.749 10.923 55.083 16.427 103.083s-36.48 51.157-41.899 72.491c-5.461 21.333-12.885 44.843-209.408-42.24zM880 704c0 0-88.917-55.125-28.416-136.917 60.416-81.749 91.093-159.403 88.149-177.152-2.816-17.664-61.013-109.184-27.52-102.016 33.579 7.168 58.411 103.168 63.744 160.085s-40.832 168.875-42.667 177.749c-1.707 8.917-31.957 77.355-53.291 78.251zM250.155 788.267c-17.237-86.016 47.104-217.6 183.851-249.6 136.661-32 77.995-5.333 56.661 37.333s-2.176 74.667 30.933 85.333c33.109 10.667 24.747-18.731 73.899 42.667 12.501 128-94.165 1.749-104.832 55.083 105.685 122.667-48.981 168.917-93.824 152.917s-129.323-37.675-146.688-123.733z" />
<glyph unicode="&#xe923;" glyph-name="empty" d="M512-64c-282.77 0-512 229.23-512 512s229.23 512 512 512c282.77 0 512-229.23 512-512s-229.23-512-512-512zM512 64c212.077 0 384 171.923 384 384s-171.923 384-384 384c-212.077 0-384-171.923-384-384s171.923-384 384-384z" />
<glyph unicode="&#xe924;" glyph-name="enlarge" d="M1024 960v-416l-160 160-192-192-96 96 192 192-160 160h416zM448 288l-192-192 160-160h-416v416l160-160 192 192 96-96z" />
<glyph unicode="&#xe925;" glyph-name="exclamation" d="M512-64c282.77 0 512 229.23 512 512s-229.23 512-512 512c-282.77 0-512-229.23-512-512s229.23-512 512-512zM564 320h-104.5l-11.5 512h128l-12-512zM448 127.264c0 18.636 5.72 34.084 17.159 46.345s27.053 18.391 46.841 18.391c19.788 0 35.401-6.13 46.841-18.391s17.159-27.709 17.159-46.345c0-17.982-5.565-33.022-16.696-45.119s-26.898-18.146-47.304-18.146c-20.406 0-36.174 6.048-47.304 18.146s-16.696 27.137-16.696 45.119z" />
<glyph unicode="&#xe926;" glyph-name="export" d="M320 320l-128 64 320 384 320-384-128-64-128 192v-576h-128v576l-128-192zM320 63.914v-127.914h-320v1024h1024v-1024h-320v128h192v768h-768v-768l192-0.086z" />
<glyph unicode="&#xe927;" glyph-name="eye_disabled" d="M225.864 173.786c-96.357 56.588-175.127 140.876-225.864 242.214 95.104 189.952 288.704 320 512 320 81.025 0 158.141-17.123 228.059-48.018l176.018 176.018 90.51-90.51-724.077-724.077-90.51 90.51 33.864 33.864zM344.464 292.387c-54.186 46.941-88.464 116.253-88.464 193.565 0 30.784 5.44 60.288 15.424 87.616-3.968-2.368-7.936-4.8-11.84-7.296-60.16-38.336-111.168-89.728-149.44-150.272 38.272-60.48 89.28-111.872 149.44-150.272 12.031-7.674 24.356-14.772 36.938-21.284l47.942 47.942zM459.512 98.415l95.556 95.556c74.32 6.832 145.989 31.319 209.412 71.757 60.16 38.336 111.168 89.728 149.44 150.272-17.473 27.612-37.601 53.33-60.042 76.781l67.878 67.878c40.868-42.425 75.462-91.167 102.244-144.659-95.104-189.952-288.704-320-512-320-17.694 0-35.202 0.817-52.488 2.415zM610.822 249.725l137.404 137.404c-25.932-61.91-75.494-111.472-137.404-137.404zM512 512c0 52.992-43.008 96-96 96s-96-43.008-96-96c0-52.992 43.008-96 96-96s96 43.008 96 96z" />
<glyph unicode="&#xe928;" glyph-name="eye_minus" d="M961.37 515.046c-29.269-17.174-62.252-28.698-97.454-33.076 18.441-20.475 35.178-42.541 50.005-65.97-38.272-60.544-89.28-111.936-149.44-150.272-75.584-48.192-162.88-73.728-252.416-73.728s-176.832 25.472-252.48 73.728c-60.16 38.4-111.168 89.792-149.44 150.272 38.272 60.544 89.28 111.936 149.44 150.272 3.904 2.496 7.872 4.928 11.84 7.296-9.984-27.328-15.424-56.832-15.424-87.616 0-141.376 114.624-256 256-256s256 114.624 256 256c0 0.706-0.003 1.411-0.009 2.115-109.297 28.135-190.344 126.637-191.967 244.332-21.021 2.379-42.383 3.601-64.025 3.601-223.296 0-416.896-130.048-512-320 95.104-189.952 288.704-320 512-320s416.896 130.048 512 320c-17.636 35.224-38.659 68.389-62.63 99.046zM512 512c0-52.992-43.008-96-96-96s-96 43.008-96 96c0 52.992 43.008 96 96 96s96-43.008 96-96zM1024 800h-384v-128h384v128z" />
<glyph unicode="&#xe929;" glyph-name="eye_plus" d="M961.37 451.046c-29.269-17.174-62.252-28.698-97.454-33.076 18.441-20.475 35.178-42.541 50.005-65.97-38.272-60.544-89.28-111.936-149.44-150.272-75.584-48.192-162.88-73.728-252.416-73.728s-176.832 25.472-252.48 73.728c-60.16 38.4-111.168 89.792-149.44 150.272 38.272 60.544 89.28 111.936 149.44 150.272 3.904 2.496 7.872 4.928 11.84 7.296-9.984-27.328-15.424-56.832-15.424-87.616 0-141.376 114.624-256 256-256s256 114.624 256 256c0 0.706-0.003 1.411-0.009 2.115-109.297 28.135-190.344 126.637-191.967 244.332-21.021 2.379-42.383 3.601-64.025 3.601-223.296 0-416.896-130.048-512-320 95.104-189.952 288.704-320 512-320s416.896 130.048 512 320c-17.636 35.224-38.659 68.389-62.63 99.046zM512 448c0-52.992-43.008-96-96-96s-96 43.008-96 96c0 52.992 43.008 96 96 96s96-43.008 96-96zM1024 736h-128v128h-128v-128h-128v-128h128v-128h128v128h128v128z" />
<glyph unicode="&#xe92a;" glyph-name="eye" d="M512 768c-223.296 0-416.896-130.048-512-320 95.104-189.952 288.704-320 512-320s416.896 130.048 512 320c-95.104 189.952-288.704 320-512 320v0zM764.48 598.272c60.16-38.4 111.168-89.792 149.44-150.272-38.272-60.544-89.28-111.936-149.44-150.272-75.584-48.192-162.88-73.728-252.416-73.728s-176.832 25.472-252.48 73.728c-60.16 38.4-111.168 89.792-149.44 150.272 38.272 60.544 89.28 111.936 149.44 150.272 3.904 2.496 7.872 4.928 11.84 7.296-9.984-27.328-15.424-56.832-15.424-87.616 0-141.376 114.624-256 256-256s256 114.624 256 256c0 30.784-5.44 60.288-15.424 87.616 3.968-2.368 7.936-4.8 11.84-7.296v0h0.064zM512 544c0-52.992-43.008-96-96-96s-96 43.008-96 96c0 52.992 43.008 96 96 96s96-43.008 96-96v0z" />
<glyph unicode="&#xe92b;" glyph-name="eyedropper" d="M986.432 922.512c-49.984 49.984-131.008 49.984-180.992 0l-172.096-172.096-121.344 121.344-135.744-135.744 106.432-106.432-472.128-472.128c-8.064-8.064-11.456-18.944-10.304-29.44h-0.256v-160c0-17.664 14.336-32 32-32h164.032c9.216 0 18.432 3.52 25.472 10.56l472.128 472.128 106.432-106.432 135.744 135.744-121.344 121.344 172.096 172.096c49.984 49.984 49.984 131.008 0 180.992l-0.128 0.064zM173.056 0.016h-109.12v109.12l469.568 469.568 109.056-109.056-469.504-469.632z" />
<glyph unicode="&#xe92c;" glyph-name="filter" d="M320 32h384v192h-384v-192zM0 864v-192h1024v192h-1024zM128 352h768v192h-768v-192z" />
<glyph unicode="&#xe92d;" glyph-name="folder_open" d="M832 32l192 512h-832l-192-512h832zM128 608l-128-576v832h288l128-128h416v-128h-704z" />
<glyph unicode="&#xe92e;" glyph-name="folder" d="M448 864l128-128h448v-704h-1024v832z" />
<glyph unicode="&#xe92f;" glyph-name="form_select" horiz-adv-x="640" d="M320-64l320 320h-640l320-320zM320 960l320-320h-640l320 320z" />
<glyph unicode="&#xe930;" glyph-name="full" d="M1024 448c0-282.77-229.23-512-512-512s-512 229.23-512 512c0 282.77 229.23 512 512 512s512-229.23 512-512z" />
<glyph unicode="&#xe931;" glyph-name="function" d="M384 960l-384-512h384l-256-512 896 640h-512l384 384z" />
<glyph unicode="&#xe932;" glyph-name="grid" d="M0 960v-1024h1024v1024h-1024zM64 896h896v-896h-896v896zM128 832h320v-256h-320v256zM576 832h320v-256h-320v256zM128 512h320v-256h-320v256zM576 512h320v-256h-320v256zM128 192h320v-192h-320v192zM576 192h320v-192h-320v192z" />
<glyph unicode="&#xe933;" glyph-name="half_empty" d="M512-64c-282.77 0-512 229.23-512 512s229.23 512 512 512c282.77 0 512-229.23 512-512s-229.23-512-512-512zM512 64v768c-212.077 0-384-171.923-384-384s171.923-384 384-384z" />
<glyph unicode="&#xe934;" glyph-name="hamburger" d="M1024 32v192h-1024v-192h1024zM1024 352v192h-1024v-192h1024zM1024 672v192h-1024v-192h1024z" />
<glyph unicode="&#xe935;" glyph-name="help" d="M512-64c-282.77 0-512 229.23-512 512s229.23 512 512 512c282.77 0 512-229.23 512-512s-229.23-512-512-512zM512 64c212.077 0 384 171.923 384 384s-171.923 384-384 384c-212.077 0-384-171.923-384-384s171.923-384 384-384zM451.145 343.398c0 30.509 3.761 54.824 11.282 72.946s22.393 38.021 44.615 59.699c22.222 21.678 36.296 37.104 42.222 46.28 9.117 13.993 13.675 29.133 13.675 45.419 0 21.563-5.299 38.021-15.897 49.376s-26.154 17.032-46.667 17.032c-19.601 0-35.385-5.563-47.35-16.688s-17.949-26.208-17.949-45.247h-83.077c0.456 40.602 14.188 72.717 41.197 96.344s62.735 35.441 107.179 35.441c45.812 0 81.538-11.699 107.179-35.097s38.462-56.086 38.462-98.065c0-37.391-17.322-74.208-51.966-110.452l-42.051-41.634c-15.043-17.204-22.792-42.322-23.248-75.355h-77.607zM445.333 236.387c0 13.534 4.216 24.487 12.65 32.86s19.829 12.559 34.188 12.559c14.587 0 26.097-4.301 34.53-12.903s12.65-19.441 12.65-32.516c0-12.617-4.103-23.168-12.308-31.656s-19.829-12.731-34.872-12.731c-15.043 0-26.61 4.244-34.701 12.731s-12.137 19.039-12.137 31.656v0z" />
<glyph unicode="&#xe936;" glyph-name="image" d="M896 768c-0.055-0.053-0.055-0.053 0 0v-640c-0.055 0.053-0.055 0.053 0 0h-768c0.055 0.053 0.055 0.053 0 0v640c0.055-0.053 0.055-0.053 0 0h768zM832 192h-640v96l186.667 288 213.333-240h53.333l186.667 144v-288zM0 896v-896h1024v896h-1024zM832 608c0-52.992-43.008-96-96-96s-96 43.008-96 96c0 52.992 43.008 96 96 96s96-43.008 96-96z" />
<glyph unicode="&#xe937;" d="M1024 448c0-282.77-229.23-512-512-512s-512 229.23-512 512c0 282.77 229.23 512 512 512s512-229.23 512-512z" />
<glyph unicode="&#xe938;" d="M585.216 671.232c0-19.456-6.912-36.096-20.736-49.92s-30.208-20.736-49.152-20.736c-18.944 0-35.328 6.912-49.152 20.736s-20.736 30.464-20.736 49.92c0 18.944 6.912 35.328 20.736 49.152s30.208 20.736 49.152 20.736c18.944 0 35.328-6.912 49.152-20.736s20.736-30.208 20.736-49.152v0zM642.816 205.056c0-3.072-0.64-6.656-1.92-10.752s-2.688-6.144-4.224-6.144c-15.872 0-35.712 0.64-59.52 1.92s-44.672 1.92-62.592 1.92c-17.408 0-36.608-0.64-57.6-1.92s-39.168-1.92-54.528-1.92c-1.536 0-2.944 2.048-4.224 6.144s-1.92 7.68-1.92 10.752c0 2.56 0.64 5.888 1.92 9.984s2.688 6.4 4.224 6.912c18.944 2.048 32.384 7.168 40.32 15.36s11.904 24.576 11.904 49.152v115.2c0 20.48-3.968 33.792-11.904 39.936s-21.376 10.24-40.32 12.288c-1.536 0.512-2.944 2.688-4.224 6.528s-1.92 7.040-1.92 9.6c0 2.56 0.64 5.888 1.92 9.984s2.688 6.144 4.224 6.144c24.576 5.12 52.224 13.44 82.944 24.96s54.528 21.376 71.424 29.568c1.536 1.024 4.096 2.304 7.68 3.84s6.656 2.304 9.216 2.304c6.144 0 10.624-1.024 13.44-3.072s3.968-4.352 3.456-6.912c-1.024-17.92-2.304-39.68-3.84-65.28s-2.304-47.104-2.304-64.512v-120.576c0-24.064 4.096-40.448 12.288-49.152s21.504-13.824 39.936-15.36c1.536 0 2.944-2.176 4.224-6.528s1.92-7.808 1.92-10.368v0z" />
<glyph unicode="&#xe939;" glyph-name="italics" d="M950.857 960v-73.143h-146.286l-365.714-877.714h146.286v-73.143h-512v73.143h146.286l365.714 877.714h-146.286v73.143z" />
<glyph unicode="&#xe93a;" glyph-name="link" d="M440.256 324.224c-13.312 0-26.624 5.056-36.8 15.232-95.104 95.104-95.104 249.92 0 345.088l192 192c46.080 46.080 107.392 71.488 172.544 71.488s126.464-25.408 172.544-71.488c95.104-95.168 95.104-249.92 0-345.088l-87.744-87.744c-20.288-20.288-53.248-20.288-73.536 0s-20.288 53.248 0 73.536l87.744 87.744c54.592 54.592 54.592 143.424 0 198.016-26.432 26.432-61.632 41.024-99.008 41.024s-72.576-14.592-99.008-41.024l-192-192c-54.592-54.592-54.592-143.424 0-198.016 20.288-20.288 20.288-53.248 0-73.536-10.176-10.176-23.488-15.232-36.8-15.232h0.064zM256-52.032c-65.152 0-126.464 25.408-172.544 71.488-95.104 95.104-95.104 249.92 0 345.088l87.744 87.744c20.288 20.288 53.248 20.288 73.536 0s20.288-53.248 0-73.536l-87.744-87.744c-54.592-54.592-54.592-143.424 0-198.016 26.432-26.432 61.568-41.024 99.008-41.024s72.576 14.592 99.008 41.024l192 192c54.592 54.592 54.592 143.424 0 198.016-20.288 20.288-20.288 53.248 0 73.536s53.248 20.288 73.536 0c95.104-95.104 95.104-249.92 0-345.088l-192-192c-46.080-46.080-107.392-71.488-172.544-71.488v0z" />
<glyph unicode="&#xe93b;" glyph-name="list" d="M0 960v-1024h1024v1024h-1024zM64 896h896v-896h-896v896zM128 832h768v-256h-768v256zM128 512h768v-256h-768v256zM128 192h768v-192h-768v192z" />
<glyph unicode="&#xe93c;" glyph-name="location_alt" d="M320 512.172c70.692 0 128 57.308 128 128s-57.308 128-128 128c-70.692 0-128-57.308-128-128s57.308-128 128-128zM320.020 960.172c-176.726 0-320.020-148.317-320.020-331.308 0-47.305 9.726-92.204 26.868-132.85l293.153-559.842 293.112 559.842c17.223 40.603 26.868 85.545 26.868 132.85 0.041 182.991-143.172 331.308-319.98 331.308v0zM320 448.086c-106.089 0-192 85.912-192 192.038 0 106.051 85.949 191.962 192 191.962 106.013 0 192-85.912 192-191.962 0-106.088-85.987-192.038-192-192.038zM1024 256v384l-256-192.048 256-191.952z" />
<glyph unicode="&#xe93d;" glyph-name="location" d="M512 550.4c75.405 0 136.533 61.128 136.533 136.533s-61.128 136.533-136.533 136.533c-75.405 0-136.533-61.128-136.533-136.533s61.128-136.533 136.533-136.533zM512.017 960c-150.807 0-273.084-118.654-273.084-265.046 0-37.844 8.299-73.763 22.927-106.28l250.157-447.874 250.122 447.874c14.697 32.482 22.927 68.436 22.927 106.28 0.035 146.393-122.174 265.046-273.049 265.046v0zM102.4 72.533h819.2v-136.533h-819.2v136.533zM512 482.042c-113.162 0-204.8 91.639-204.8 204.84 0 113.121 91.679 204.76 204.8 204.76 113.081 0 204.8-91.639 204.8-204.76 0-113.161-91.719-204.84-204.8-204.84v0z" />
<glyph unicode="&#xe93e;" glyph-name="lock_closed" horiz-adv-x="896" d="M512 209.124v-80.525c0-35.677-28.407-64.6-64-64.6-35.346 0-64 28.375-64 64.6v80.525c-38.259 22.132-64 63.498-64 110.876 0 70.692 57.308 128 128 128s128-57.308 128-128c0-47.378-25.741-88.744-64-110.876zM128 575.999c-70.79-0.201-128-57.421-128-127.975v-384.049c0-71.18 57.475-127.975 128.375-127.975h639.25c70.963 0 128.375 57.297 128.375 127.975v384.049c0 71.054-57.273 127.775-128 127.975v63.861c0 177.485-143.269 320.14-320 320.14-176.372 0-320-143.332-320-320.14v-63.861zM256 672c0 88.366 72.227 160 160.626 160h62.749c88.711 0 160.626-71.018 160.626-160v-160h-384v160z" />
<glyph unicode="&#xe93f;" glyph-name="lock_open" d="M448 544h-320.511c-69.878 0-127.489-57.233-127.489-127.833v-320.334c0-70.498 57.079-127.833 127.489-127.833h449.022c69.878 0 127.489 57.233 127.489 127.833v320.334c0 70.498-57.079 127.833-127.489 127.833h-0.511v45.058c0 116.932 74.505 207.785 160 207.785 85.835 0 160-90.377 160-207.785v-109.058h128v109.058c0 185.297-126.084 338.942-288 338.942-161.599 0-288-154.137-288-338.942v-45.058zM384 229.463v-101.758c0-17.51-14.844-31.705-32-31.705-17.673 0-32 13.808-32 31.705v101.758c-37.286 13.179-64 48.738-64 90.537 0 53.019 42.981 96 96 96s96-42.981 96-96c0-41.799-26.714-77.359-64-90.537z" />
<glyph unicode="&#xe940;" glyph-name="minus" d="M614.4 576h409.6v-252.832h-407.726l-204.556-3.168-411.718 3.168v252.832h410.852z" />
<glyph unicode="&#xe941;" glyph-name="new_window" d="M640 832l384-320-384-320v192c-320 0-512-128-640-320 64 256 256 576 640 576v192z" />
<glyph unicode="&#xe942;" glyph-name="not_allowed" d="M842.169 644.188c34.191-57.417 53.831-124.509 53.831-196.188 0-212.077-171.923-384-384-384-57.285 0-111.64 12.544-160.469 35.034l490.638 545.154zM715.522 773.69l-506.021-562.256c-51.062 65.201-81.501 147.329-81.501 236.565 0 212.077 171.923 384 384 384 74.753 0 144.517-21.36 203.522-58.31zM512-64c282.77 0 512 229.23 512 512s-229.23 512-512 512c-282.77 0-512-229.23-512-512s229.23-512 512-512z" />
<glyph unicode="&#xe943;" glyph-name="notes" horiz-adv-x="768" d="M-0.048 960h446.921v-320h321.079v-704h-768v1024zM127.952 832v-768h512v448h-321.079v320h-190.921zM192 192h384v-64h-384v64zM192 320h384v-64h-384v64zM192 448h384v-64h-384v64zM511.952 960v-256h256l-256 256z" />
<glyph unicode="&#xe944;" glyph-name="numbered_list" horiz-adv-x="960" d="M320 128h640v-128h-640v128zM320 512h640v-128h-640v128zM320 896h640v-128h-640v128zM128 960v-256h-64v192h-64v64h128zM64 433.984v-49.984h128v-64h-192v145.984l128 60.032v49.984h-128v64h192v-145.984l-128-60.032zM192 256v-320h-192v64h128v64h-128v64h128v64h-128v64h192z" />
<glyph unicode="&#xe945;" glyph-name="one_third" d="M512-64c-282.77 0-512 229.23-512 512s229.23 512 512 512c282.77 0 512-229.23 512-512s-229.23-512-512-512zM512 64c89.981 0 172.733 30.949 238.193 82.783l-238.193 301.217v384c-212.077 0-384-171.923-384-384s171.923-384 384-384z" />
<glyph unicode="&#xe946;" glyph-name="options" d="M452.923 384h59.077v128h-512v-128h452.923zM59.077 640h452.923v128h-512v-128h59.077zM59.077 128h452.923v128h-512v-128h59.077zM832.048 256l191.952 256h-384l192.048-256z" />
<glyph unicode="&#xe947;" glyph-name="password" d="M859.318 473.554c-15.955 28.696-58.321 81.341-65.786 88.806-9.815 9.815-25.729 9.815-35.544 0s-9.815-25.729 0-35.544c7.465-7.465 60.11-49.831 88.806-65.786-31.573 9.009-98.756 16.277-109.313 16.277-13.881 0-25.133-11.253-25.133-25.133s11.253-25.133 25.133-25.133c10.557 0 77.74 7.268 109.313 16.277-28.696-15.955-81.341-58.321-88.806-65.786-9.815-9.815-9.815-25.729 0-35.544s25.729-9.815 35.544 0c7.465 7.465 49.831 60.11 65.786 88.806-9.009-31.573-16.277-98.756-16.277-109.313 0-13.881 11.253-25.133 25.133-25.133s25.133 11.253 25.133 25.133c0 10.557-7.268 77.74-16.277 109.313 15.955-28.696 58.321-81.341 65.786-88.806 9.815-9.815 25.729-9.815 35.544 0s9.815 25.729 0 35.544c-7.465 7.465-60.11 49.831-88.806 65.786 31.573-9.009 98.756-16.277 109.313-16.277 13.881 0 25.133 11.253 25.133 25.133s-11.253 25.133-25.133 25.133c-10.557 0-77.74-7.268-109.313-16.277 28.696 15.955 81.341 58.321 88.806 65.786 9.815 9.815 9.815 25.729 0 35.544s-25.729 9.815-35.544 0c-7.465-7.465-49.831-60.11-65.786-88.806 9.009 31.573 16.277 98.756 16.277 109.313 0 13.881-11.253 25.133-25.133 25.133s-25.133-11.253-25.133-25.133c0-10.557 7.268-77.74 16.277-109.313zM865.342 459.010c0.94-1.177 1.886-1.81 2.832-1.81s1.891 0.633 2.832 1.81c-0.167-1.497 0.054-2.613 0.723-3.282s1.785-0.89 3.282-0.723c-1.177-0.94-1.81-1.886-1.81-2.832s0.633-1.891 1.81-2.832c-1.497 0.167-2.613-0.054-3.282-0.723s-0.89-1.785-0.723-3.282c-0.94 1.177-1.886 1.81-2.832 1.81s-1.891-0.633-2.832-1.81c0.167 1.497-0.054 2.613-0.723 3.282s-1.785 0.89-3.282 0.723c1.177 0.94 1.81 1.886 1.81 2.832s-0.633 1.891-1.81 2.832c1.497-0.167 2.613 0.054 3.282 0.723s0.89 1.785 0.723 3.282zM503.144 473.554c-15.955 28.696-58.321 81.341-65.786 88.806-9.815 9.815-25.729 9.815-35.544 0s-9.815-25.729 0-35.544c7.465-7.465 60.11-49.831 88.806-65.786-31.573 9.009-98.756 16.277-109.313 16.277-13.881 0-25.133-11.253-25.133-25.133s11.253-25.133 25.133-25.133c10.557 0 77.74 7.268 109.313 16.277-28.696-15.955-81.341-58.321-88.806-65.786-9.815-9.815-9.815-25.729 0-35.544s25.729-9.815 35.544 0c7.465 7.465 49.831 60.11 65.786 88.806-9.009-31.573-16.277-98.756-16.277-109.313 0-13.881 11.253-25.133 25.133-25.133s25.133 11.253 25.133 25.133c0 10.557-7.268 77.74-16.277 109.313 15.955-28.696 58.321-81.341 65.786-88.806 9.815-9.815 25.729-9.815 35.544 0s9.815 25.729 0 35.544c-7.465 7.465-60.11 49.831-88.806 65.786 31.573-9.009 98.756-16.277 109.313-16.277 13.881 0 25.133 11.253 25.133 25.133s-11.253 25.133-25.133 25.133c-10.557 0-77.74-7.268-109.313-16.277 28.696 15.955 81.341 58.321 88.806 65.786 9.815 9.815 9.815 25.729 0 35.544s-25.729 9.815-35.544 0c-7.465-7.465-49.831-60.11-65.786-88.806 9.009 31.573 16.277 98.756 16.277 109.313 0 13.881-11.253 25.133-25.133 25.133s-25.133-11.253-25.133-25.133c0-10.557 7.268-77.74 16.277-109.313zM509.168 459.010c0.94-1.177 1.886-1.81 2.832-1.81s1.891 0.633 2.832 1.81c-0.167-1.497 0.054-2.613 0.723-3.282s1.785-0.89 3.282-0.723c-1.177-0.94-1.81-1.886-1.81-2.832s0.633-1.891 1.81-2.832c-1.497 0.167-2.613-0.054-3.282-0.723s-0.89-1.785-0.723-3.282c-0.94 1.177-1.886 1.81-2.832 1.81s-1.891-0.633-2.832-1.81c0.167 1.497-0.054 2.613-0.723 3.282s-1.785 0.89-3.282 0.723c1.177 0.94 1.81 1.886 1.81 2.832s-0.633 1.891-1.81 2.832c1.497-0.167 2.613 0.054 3.282 0.723s0.89 1.785 0.723 3.282zM146.97 473.554c-15.955 28.696-58.321 81.341-65.786 88.806-9.815 9.815-25.729 9.815-35.544 0s-9.815-25.729 0-35.544c7.465-7.465 60.11-49.831 88.806-65.786-31.573 9.009-98.756 16.277-109.313 16.277-13.881 0-25.133-11.253-25.133-25.133s11.253-25.133 25.133-25.133c10.557 0 77.74 7.268 109.313 16.277-28.696-15.955-81.341-58.321-88.806-65.786-9.815-9.815-9.815-25.729 0-35.544s25.729-9.815 35.544 0c7.465 7.465 49.831 60.11 65.786 88.806-9.009-31.573-16.277-98.756-16.277-109.313 0-13.881 11.253-25.133 25.133-25.133s25.133 11.253 25.133 25.133c0 10.557-7.268 77.74-16.277 109.313 15.955-28.696 58.321-81.341 65.786-88.806 9.815-9.815 25.729-9.815 35.544 0s9.815 25.729 0 35.544c-7.465 7.465-60.11 49.831-88.806 65.786 31.573-9.009 98.756-16.277 109.313-16.277 13.881 0 25.133 11.253 25.133 25.133s-11.253 25.133-25.133 25.133c-10.557 0-77.74-7.268-109.313-16.277 28.696 15.955 81.341 58.321 88.806 65.786 9.815 9.815 9.815 25.729 0 35.544s-25.729 9.815-35.544 0c-7.465-7.465-49.831-60.11-65.786-88.806 9.009 31.573 16.277 98.756 16.277 109.313 0 13.881-11.253 25.133-25.133 25.133s-25.133-11.253-25.133-25.133c0-10.557 7.268-77.74 16.277-109.313zM152.994 459.010c0.94-1.177 1.886-1.81 2.832-1.81s1.891 0.633 2.832 1.81c-0.167-1.497 0.054-2.613 0.723-3.282s1.785-0.89 3.282-0.723c-1.177-0.94-1.81-1.886-1.81-2.832s0.633-1.891 1.81-2.832c-1.497 0.167-2.613-0.054-3.282-0.723s-0.89-1.785-0.723-3.282c-0.94 1.177-1.886 1.81-2.832 1.81s-1.891-0.633-2.832-1.81c0.167 1.497-0.054 2.613-0.723 3.282s-1.785 0.89-3.282 0.723c1.177 0.94 1.81 1.886 1.81 2.832s-0.633 1.891-1.81 2.832c1.497-0.167 2.613 0.054 3.282 0.723s0.89 1.785 0.723 3.282z" />
<glyph unicode="&#xe948;" glyph-name="pencil_alt" d="M864 960c88.384 0 160-71.616 160-160 0-36.032-11.904-69.248-32-96l-64-64-224 224 64 64c26.752 20.096 59.968 32 96 32v0zM64 224l-64-288 288 64 592 592-224 224-592-592zM715.584 596.416l-448-448-55.168 55.168 448 448 55.168-55.168z" />
<glyph unicode="&#xe949;" glyph-name="pencil" d="M34.133 72.533h819.2v-136.533h-819.2v136.533zM236.267 213.843l24.136 168.951 144.815-144.815-168.951-24.136zM901.365 880.735c-36.204 36.204-107.807 37.008-107.807 37.008l-447.319-447.319 144.815-144.815 447.319 447.319c0 0-0.805 71.603-37.008 107.807z" />
<glyph unicode="&#xe94a;" glyph-name="plus" d="M409.6 960h204.8l1.874-409.6h407.726v-204.8h-407.726v-409.6h-205.422l0.866 407.033-411.718 2.567v204.8h410.852z" />
<glyph unicode="&#xe94b;" glyph-name="power_off" horiz-adv-x="896" d="M640 788.888c151.357-71.902 256-226.174 256-404.888 0-247.424-200.576-448-448-448s-448 200.576-448 448c0 178.713 104.643 332.986 256 404.888v-148.864c-77.725-58.381-128-151.331-128-256.023 0-176.731 143.269-320 320-320s320 143.269 320 320c0 104.692-50.275 197.642-128 256.023v148.864zM384 960h128v-512h-128v512z" />
<glyph unicode="&#xe94c;" glyph-name="print" d="M320 320h384v-384h-384v384zM320 960h384v-192h-384v192zM0 192h256v192h512v-192h256v512h-1024v-512zM896.069 502.927c-35.436 0-64.069 28.679-64.069 64.040s28.633 64.085 64.069 64.085c35.344 0 63.931-28.725 63.931-64.085s-28.633-64.040-63.931-64.040z" />
<glyph unicode="&#xe94d;" glyph-name="printer_alt" d="M960 640h-896c-35.2 0-64-28.8-64-64v-320c0-35.2 28.8-64 64-64h192v-256h512v256h192c35.2 0 64 28.8 64 64v320c0 35.2-28.8 64-64 64v0zM128 448c-35.328 0-64 28.672-64 64s28.672 64 64 64c35.328 0 64-28.672 64-64s-28.672-64-64-64v0zM704 0h-384v320h384v-320zM256 960h512v-256h-512v256z" />
<glyph unicode="&#xe94e;" glyph-name="profile" d="M511.851 274.381c-217.642 0-186.256 21.522-241.065 107.714-262.852 0-270.786-446.095-270.786-446.095h1023.703c-0.043 0 20.628 448-274.946 448-54.766-87.273-19.264-109.619-236.905-109.619zM512 448c141.385 0 256 114.615 256 256s-114.615 256-256 256c-141.385 0-256-114.615-256-256s114.615-256 256-256z" />
<glyph unicode="&#xe94f;" glyph-name="qr_code" d="M320 896h-256v-256h256v256zM384 960v0-384h-384v384h384zM128 832h128v-128h-128v128zM960 896h-256v-256h256v256zM1024 960v0-384h-384v384h384zM768 832h128v-128h-128v128zM320 256h-256v-256h256v256zM384 320v0-384h-384v384h384zM128 192h128v-128h-128v128zM448 960h64v-64h-64v64zM512 896h64v-64h-64v64zM448 832h64v-64h-64v64zM512 768h64v-64h-64v64zM448 704h64v-64h-64v64zM512 640h64v-64h-64v64zM448 576h64v-64h-64v64zM448 448h64v-64h-64v64zM512 384h64v-64h-64v64zM448 320h64v-64h-64v64zM512 256h64v-64h-64v64zM448 192h64v-64h-64v64zM512 128h64v-64h-64v64zM448 64h64v-64h-64v64zM512 0h64v-64h-64v64zM960 448h64v-64h-64v64zM64 448h64v-64h-64v64zM128 512h64v-64h-64v64zM0 512h64v-64h-64v64zM256 512h64v-64h-64v64zM320 448h64v-64h-64v64zM384 512h64v-64h-64v64zM576 448h64v-64h-64v64zM640 512h64v-64h-64v64zM704 448h64v-64h-64v64zM768 512h64v-64h-64v64zM832 448h64v-64h-64v64zM896 512h64v-64h-64v64zM960 320h64v-64h-64v64zM576 320h64v-64h-64v64zM640 384h64v-64h-64v64zM704 320h64v-64h-64v64zM832 320h64v-64h-64v64zM896 384h64v-64h-64v64zM960 192h64v-64h-64v64zM576 192h64v-64h-64v64zM640 256h64v-64h-64v64zM768 256h64v-64h-64v64zM832 192h64v-64h-64v64zM896 256h64v-64h-64v64zM960 64h64v-64h-64v64zM640 128h64v-64h-64v64zM704 64h64v-64h-64v64zM768 128h64v-64h-64v64zM832 64h64v-64h-64v64zM640 0h64v-64h-64v64zM768 0h64v-64h-64v64zM896 0h64v-64h-64v64z" />
<glyph unicode="&#xe950;" glyph-name="questionmark" d="M512-64c282.77 0 512 229.23 512 512s-229.23 512-512 512c-282.77 0-512-229.23-512-512s229.23-512 512-512zM449.488 320c0 18.375 2.456 128 2.456 128 9.823 23.586 41.525 59.094 70.549 87.308s47.405 48.292 55.144 60.234c11.907 18.212 17.86 37.917 17.86 59.115 0 28.065-6.921 49.486-20.763 64.265s-34.158 22.168-60.949 22.168c-25.6 0-46.214-7.24-61.842-21.72s-23.442-34.11-23.442-58.891h-108.502c0.595 52.845 18.53 94.643 53.805 125.394s81.935 46.127 139.981 46.127c59.833 0 106.493-15.226 139.981-45.679s50.233-72.997 50.233-127.634c0-48.665-22.623-96.583-67.87-143.756l-54.921-54.188c-5.209-12.743-5.209-140.743-5.209-140.743h-126.512zM448 148.598c0 19.29 5.741 34.902 17.222 46.835s26.996 17.9 46.545 17.9c19.859 0 35.53-6.13 47.011-18.391s17.222-27.709 17.222-46.345c0-17.982-5.585-33.022-16.756-45.119s-26.996-18.146-47.476-18.146c-20.48 0-36.228 6.048-47.244 18.146s-16.524 27.137-16.524 45.119z" />
<glyph unicode="&#xe951;" glyph-name="remove_user" d="M511.851 274.381c-217.642 0-186.256 21.522-241.065 107.714-262.852 0-270.786-446.095-270.786-446.095h576v192h429.601c-27.249 120.221-94.123 256-256.844 256-54.766-87.273-19.264-109.619-236.905-109.619zM640 64h384v-128h-384v128zM512 448c141.385 0 256 114.615 256 256s-114.615 256-256 256c-141.385 0-256-114.615-256-256s114.615-256 256-256z" />
<glyph unicode="&#xe952;" glyph-name="rotate" horiz-adv-x="896" d="M256 43.112c-151.357 71.902-256 226.174-256 404.888s104.643 332.986 256 404.888v-148.864c-77.725-58.381-128-151.331-128-256.023s50.275-197.642 128-256.023v128.023l256-192.048-256-191.952v107.112zM640 852.888c151.357-71.902 256-226.174 256-404.888s-104.643-332.986-256-404.888v148.864c77.725 58.381 128 151.331 128 256.023s-50.275 197.642-128 256.023v-128.023l-256 191.952 256 192.048v-107.112z" />
<glyph unicode="&#xe953;" glyph-name="save" d="M0 960v-1024h1024v896l-128 128h-896zM128 448h768v-384h-768v384zM256 896h512v-192h-512v192zM192 384h640v-64h-640v64zM192 256h640v-64h-640v64z" />
<glyph unicode="&#xe954;" glyph-name="saved" d="M0 960v-1024h1024v896l-128 128h-896zM128 448h768v-384h-768v384zM256 896h512v-192h-512v192zM663.988 384l40.012-39.385-220.067-216.615-99.933 98.462 39.915 39.385 60.018-59.077 180.055 177.231z" />
<glyph unicode="&#xe955;" glyph-name="search" d="M583.792 248.004c-58.206-35.531-126.608-56.004-199.792-56.004-212.077 0-384 171.923-384 384s171.923 384 384 384c212.077 0 384-171.923 384-384 0-73.246-20.507-141.702-56.093-199.939l312.093-312.061-128-128-312.208 312.004zM384 320c141.385 0 256 114.615 256 256s-114.615 256-256 256c-141.385 0-256-114.615-256-256s114.615-256 256-256z" />
<glyph unicode="&#xe956;" glyph-name="settings" horiz-adv-x="896" d="M192 448h-128v512h128v-512zM192 192h-128v-256h128v256zM256 256v128h-256v-128h256zM576 640v128h-256v-128h256zM896 128v128h-256v-128h256zM512 960h-128v-128h128v128zM512 576h-128v-640h128v640zM832 960h-128v-640h128v640zM832 64h-128v-128h128v128z" />
<glyph unicode="&#xe957;" glyph-name="shapes" d="M322.955 329.846c31.325 154.319 152.879 275.873 307.199 307.199v322.955h-630.154v-630.154h322.955zM708.923-44.308c-163.136 0-295.385 132.248-295.385 295.385s132.248 295.385 295.385 295.385c163.136 0 295.385-132.248 295.385-295.385s-132.248-295.385-295.385-295.385zM708.923 14.769c130.509 0 236.308 105.799 236.308 236.308s-105.799 236.308-236.308 236.308c-130.509 0-236.308-105.799-236.308-236.308s105.799-236.308 236.308-236.308z" />
<glyph unicode="&#xe958;" glyph-name="share" d="M325.102 309.624l316.178-159.337c-0.845-7.312-1.28-14.749-1.28-22.287 0-106.039 85.961-192 192-192s192 85.961 192 192c0 106.039-85.961 192-192 192-52.286 0-99.691-20.9-134.316-54.802l-315.166 158.827c0.978 7.854 1.482 15.856 1.482 23.975 0 6.36-0.309 12.647-0.913 18.848l318.312 160.412c34.263-31.81 80.161-51.26 130.601-51.26 106.039 0 192 85.961 192 192s-85.961 192-192 192c-106.039 0-192-85.961-192-192 0-9.293 0.66-18.431 1.936-27.371l-313.205-157.839c-34.819 35.317-83.218 57.209-136.731 57.209-106.039 0-192-85.961-192-192s85.961-192 192-192c51.678 0 98.587 20.417 133.102 53.624z" />
<glyph unicode="&#xe959;" glyph-name="shrink" d="M448 384v-416l-160 160-192-192-96 96 192 192-160 160h416zM1024 864l-192-192 160-160h-416v416l160-160 192 192 96-96z" />
<glyph unicode="&#xe95a;" glyph-name="single" d="M0 960v-1024h1024v1024h-1024zM64 896h896v-896h-896v896zM128 832h768v-768h-768v768z" />
<glyph unicode="&#xe95b;" glyph-name="sort_amount_asc" d="M288 167.226v792.774h-128v-792.774h-160l224-231.226 224 231.226h-160zM448 384h576v-128h-576v128zM448 576h448v-128h-448v128zM448 768h320v-128h-320v128zM448 960h192v-128h-192v128z" />
<glyph unicode="&#xe95c;" glyph-name="sort_amount_desc" d="M288 167.226v792.774h-128v-792.774h-160l224-231.226 224 231.226h-160zM448 960h576v-128h-576v128zM448 768h448v-128h-448v128zM448 576h320v-128h-320v128zM448 384h192v-128h-192v128z" />
<glyph unicode="&#xe95d;" glyph-name="star" d="M512 160l-300.946-158.217 57.476 335.108-243.47 237.325 336.468 48.892 150.473 304.892 150.473-304.892 336.468-48.892-243.47-237.325 57.476-335.108z" />
<glyph unicode="&#xe95e;" glyph-name="suitcase" d="M256 768v128.59c0 34.547 28.569 63.41 63.81 63.41h384.38c34.816 0 63.81-28.39 63.81-63.41v-128.59h256v-256l-128-64h-768l-128 64v256h256zM384 768h256v32.609c0 17.627-14.054 31.391-31.391 31.391h-193.219c-17.627 0-31.391-14.054-31.391-31.391v-32.609zM0 448l128-64h64v-128h128v128h384v-128h128v128h64l128 64v-512h-1024v512z" />
<glyph unicode="&#xe95f;" glyph-name="table" d="M60.235 809.412v-722.824h963.765v722.824h-963.765c-13.961 0 0-60.235 0-60.235v60.235zM421.647 327.529v120.471h240.941v-120.471h-240.941zM662.588 267.294v-120.471h-240.941v120.471h240.941zM662.588 628.706v-120.471h-240.941v120.471h240.941zM361.412 628.706v-120.471h-240.941v120.471h240.941zM120.471 448h240.941v-120.471h-240.941v120.471zM722.824 448h240.941v-120.471h-240.941v120.471zM722.824 508.235v120.471h240.941v-120.471h-240.941zM120.471 267.294h240.941v-120.471h-240.941v120.471zM722.824 146.824v120.471h240.941v-120.471h-240.941z" />
<glyph unicode="&#xe960;" glyph-name="tachometer" d="M292.938 763.427l15.199-26.326c9.301-16.109 28.557-20.809 43.863-11.972 14.858 8.578 20.482 28.524 11.563 43.972l-15.228 26.375c40.509 19.113 84.899 31.352 131.665 35.21v-30.386c0-18.602 14.327-32.3 32-32.3 17.156 0 32 14.461 32 32.3v30.386c46.766-3.858 91.156-16.096 131.665-35.21l-15.228-26.375c-9.301-16.109-3.742-35.136 11.563-43.972 14.858-8.578 34.943-3.476 43.863 11.972l15.199 26.326c37.56-26.134 70.231-58.805 96.365-96.365l-26.326-15.199c-16.109-9.301-20.809-28.557-11.972-43.863 8.578-14.858 28.524-20.482 43.972-11.563l26.375 15.228c19.113-40.509 31.352-84.899 35.21-131.665h-30.386c-18.602 0-32.3-14.327-32.3-32 0-17.156 14.461-32 32.3-32h30.386c-3.858-46.766-16.096-91.156-35.21-131.665l-26.375 15.228c-16.109 9.301-35.136 3.742-43.972-11.563-8.578-14.858-3.476-34.943 11.972-43.863l26.326-15.199c-26.134-37.56-58.805-70.231-96.365-96.365l-15.199 26.326c-9.301 16.109-28.557 20.809-43.863 11.972-14.858-8.578-20.482-28.524-11.563-43.972l15.228-26.375c-40.509-19.113-84.899-31.352-131.665-35.21v30.386c0 18.602-14.327 32.3-32 32.3-17.156 0-32-14.461-32-32.3v-30.386c-46.766 3.858-91.156 16.096-131.665 35.21l15.228 26.375c9.301 16.109 3.742 35.136-11.563 43.972-14.858 8.578-34.943 3.476-43.863-11.972l-15.199-26.326c-37.56 26.134-70.231 58.805-96.365 96.365l26.326 15.199c16.109 9.301 20.809 28.557 11.972 43.863-8.578 14.858-28.524 20.482-43.972 11.563l-26.375-15.228c-19.113 40.509-31.352 84.899-35.21 131.665h30.386c18.602 0 32.3 14.327 32.3 32 0 17.156-14.461 32-32.3 32h-30.386c3.858 46.766 16.096 91.156 35.21 131.665l26.375-15.228c16.109-9.301 35.136-3.742 43.972 11.563 8.578 14.858 3.476 34.943-11.972 43.863l-26.326 15.199c26.134 37.56 58.805 70.231 96.365 96.365zM544 503.438c19.13-11.066 32-31.749 32-55.438 0-35.346-28.654-64-64-64s-64 28.654-64 64c0 23.689 12.87 44.372 32 55.438v169.171c0 17.337 14.844 31.391 32 31.391 17.673 0 32-13.764 32-31.391v-169.171zM512-64c282.77 0 512 229.23 512 512s-229.23 512-512 512c-282.77 0-512-229.23-512-512s229.23-512 512-512z" />
<glyph unicode="&#xe961;" glyph-name="tag_alt" d="M0 704.295c0 35.184 29.169 63.705 64.158 63.705h639.683c35.434 0 81.964-21.842 104.488-49.472l207.256-254.235c0 0 8.414-8.188 8.414-16.293 0-7.641-8.414-16-8.414-16l-207.256-254.481c-22.274-27.349-69.499-49.519-104.488-49.519h-639.683c-35.434 0-64.158 29.163-64.158 63.705v512.589zM768 384c35.346 0 64 28.654 64 64s-28.654 64-64 64c-35.346 0-64-28.654-64-64s28.654-64 64-64z" />
<glyph unicode="&#xe962;" glyph-name="tag" horiz-adv-x="640" d="M63.705-64c-35.184 0-63.705 29.169-63.705 64.158v639.683c0 35.434 21.842 81.964 49.472 104.488l254.235 207.256c0 0 8.188 8.414 16.293 8.414 7.641 0 16-8.414 16-8.414l254.481-207.256c27.349-22.274 49.519-69.499 49.519-104.488v-639.683c0-35.434-29.163-64.158-63.705-64.158h-512.589zM384 704c0 35.346-28.654 64-64 64s-64-28.654-64-64c0-35.346 28.654-64 64-64s64 28.654 64 64z" />
<glyph unicode="&#xe963;" glyph-name="task-tick" d="M927.971 960l96.029-98.462-528.16-541.538-239.84 246.154 95.796 98.462 144.044-147.692 432.131 443.077zM512 960v-128h-384v-768h768v512h128v-640h-1024v1024h512z" />
<glyph unicode="&#xe964;" glyph-name="team_admin" d="M941.805 645.848c-44.365 0-80.39-36.935-81.808-82.936l-218.857 33.569-94.017 200.743c27.642 13.868 46.858 43.039 46.858 77.102 0 47.302-36.756 85.674-82.066 85.674s-82.066-38.371-82.066-85.674c0-32.627 17.626-60.631 43.376-75.127l-94.877-202.718-214.559-32.896c-1.763 45.687-37.572 82.263-81.722 82.263-45.31 0-82.066-38.371-82.066-85.674s36.756-85.674 82.066-85.674c21.366 0 40.668 8.751 55.198 22.709l159.876-164.167-36.756-226.369c-2.149 0.18-4.213 0.673-6.319 0.673-45.31 0-82.066-38.371-82.066-85.674s36.756-85.674 82.066-85.674c45.31 0 82.066 38.371 82.066 85.674 0 16.65-4.729 32.043-12.639 45.193l186.315 103.311 189.711-105.151c-7.222-12.79-11.65-27.421-11.65-43.353 0-47.302 36.756-85.674 82.066-85.674s82.066 38.371 82.066 85.674c0 47.302-36.756 85.674-82.066 85.674-3.654 0-7.093-0.628-10.618-1.122l-36.842 226.862 161.811 166.231c14.831-15.304 35.165-24.773 57.648-24.773 45.31 0 82.066 38.371 82.066 85.674s-36.885 85.629-82.195 85.629v0z" />
<glyph unicode="&#xe965;" glyph-name="tick" d="M895.689 864l128-128-704-704-319.689 320 127.689 128 192-192z" />
<glyph unicode="&#xe966;" glyph-name="tinyarrow" d="M597.333 106.649l256.057 255.897-85.348 85.333-170.709-170.681v682.801h-170.667v-682.801l-170.709 170.681-85.348-85.333 341.39-341.177 85.209 85.156h0.124v0.124z" />
<glyph unicode="&#xe967;" glyph-name="two_thirds" d="M512-64c282.77 0 512 229.23 512 512s-229.23 512-512 512c-282.77 0-512-229.23-512-512s229.23-512 512-512zM209.801 211.051c-51.243 65.263-81.801 147.537-81.801 236.949 0 212.077 171.923 384 384 384v-384l-302.199-236.949z" />
<glyph unicode="&#xe968;" glyph-name="underline" d="M731.429 960h146.286v-475.429c0-181.76-163.767-329.143-365.714-329.143s-365.714 147.383-365.714 329.143v475.429h146.286v-475.429c0-45.934 20.846-89.966 58.661-123.977 42.203-37.961 99.255-58.88 160.768-58.88s118.565 20.919 160.768 58.88c37.815 34.085 58.661 78.117 58.661 123.977v475.429zM146.286 82.286h731.429v-146.286h-731.429v146.286z" />
<glyph unicode="&#xe969;" glyph-name="upload" d="M512 224h-512v-256h1024v256h-512zM256 672l256 256 256-256h-160v-384h-192v384h-160z" />
<glyph unicode="&#xe96a;" glyph-name="user_comment" d="M787.072 960c-128.256 0-232.32-77.824-232.32-173.909 0-87.68 86.827-159.957 199.509-171.904l-66.261-121.771 185.003 132.224c85.76 25.557 146.517 88.149 146.517 161.451 0 96.085-104.021 173.909-232.448 173.909zM384 315.138c106.039 0 192 85.961 192 192s-85.961 192-192 192c-106.039 0-192-85.961-192-192s85.961-192 192-192zM383.888 177.701c-163.231 0-139.692 15.373-180.799 76.938-197.139 0-203.089-318.639-203.089-318.639h767.777c-0.032 0 15.471 320-206.209 320-41.075-62.338-14.448-78.299-177.679-78.299z" />
<glyph unicode="&#xe96b;" glyph-name="users" d="M640 832h-128v-128h128v-128h128v128h128v128h-128v128h-128v-128zM255.926 617.191c-108.821 0-93.128 10.761-120.533 53.857-131.426 0-135.393-223.047-135.393-223.047h511.851c-0.021 0 10.314 224-137.473 224-27.383-43.636-9.632-54.809-118.453-54.809zM256 704c70.692 0 128 57.308 128 128s-57.308 128-128 128c-70.692 0-128-57.308-128-128s57.308-128 128-128zM767.926 105.191c-108.821 0-93.128 10.761-120.533 53.857-131.426 0-135.393-223.047-135.393-223.047h511.851c-0.021 0 10.314 224-137.473 224-27.383-43.636-9.632-54.809-118.453-54.809zM768 192c70.692 0 128 57.308 128 128s-57.308 128-128 128c-70.692 0-128-57.308-128-128s57.308-128 128-128z" />
</font>
</defs>
</svg>
